<?xml version="1.0" encoding="utf-8" standalone="no"?>
<!DOCTYPE svg PUBLIC "-//W3C//DTD SVG 1.1//EN"
  "http://www.w3.org/Graphics/SVG/1.1/DTD/svg11.dtd">
<svg xmlns:xlink="http://www.w3.org/1999/xlink" width="698.4pt" height="122.4pt" viewBox="0 0 698.4 122.4" xmlns="http://www.w3.org/2000/svg" version="1.1">
 <metadata>
  <rdf:RDF xmlns:dc="http://purl.org/dc/elements/1.1/" xmlns:cc="http://creativecommons.org/ns#" xmlns:rdf="http://www.w3.org/1999/02/22-rdf-syntax-ns#">
   <cc:Work>
    <dc:type rdf:resource="http://purl.org/dc/dcmitype/StillImage"/>
    <dc:date>2025-04-18T15:56:28.115047</dc:date>
    <dc:format>image/svg+xml</dc:format>
    <dc:creator>
     <cc:Agent>
      <dc:title>Matplotlib v3.10.1, https://matplotlib.org/</dc:title>
     </cc:Agent>
    </dc:creator>
   </cc:Work>
  </rdf:RDF>
 </metadata>
 <defs>
  <style type="text/css">*{stroke-linejoin: round; stroke-linecap: butt}</style>
 </defs>
 <g id="figure_1">
  <g id="patch_1">
   <path d="M 0 122.4 
L 698.4 122.4 
L 698.4 0 
L 0 0 
L 0 122.4 
z
" style="fill: none; opacity: 0"/>
  </g>
  <g id="axes_1">
   <g id="line2d_1">
    <path d="M 31.745455 75.534489 
L 31.798784 75.009165 
L 32.198752 64.525528 
L 32.225416 64.594049 
L 32.252081 64.664853 
L 32.278745 64.596333 
L 32.332074 64.356511 
L 32.412068 64.379351 
L 32.492061 64.854427 
L 32.54539 64.504972 
L 32.812036 62.252932 
L 32.892029 62.033666 
L 32.918694 62.147867 
L 33.291997 68.572806 
L 33.42532 65.841122 
L 33.771959 55.22958 
L 33.851952 58.685298 
L 34.118598 68.917693 
L 34.25192 71.201709 
L 34.305249 70.130505 
L 34.518566 63.678158 
L 34.54523 63.760383 
L 34.625224 65.123941 
L 34.865204 73.899133 
L 35.078521 81.46608 
L 35.158514 82.386539 
L 35.211843 81.973132 
L 35.771798 67.876181 
L 35.825127 67.803092 
L 35.931786 69.328816 
L 36.198431 75.194171 
L 36.225095 75.100526 
L 36.25176 75.191887 
L 36.385083 78.444326 
L 36.465076 77.944127 
L 36.54507 78.019499 
L 36.651728 76.19457 
L 36.78505 72.695456 
L 37.131689 58.351831 
L 37.185018 59.749649 
L 37.611651 74.62545 
L 37.638315 74.518102 
L 37.744973 72.528723 
L 38.064948 56.456097 
L 38.091612 56.835244 
L 38.304929 66.304777 
L 38.464916 71.530608 
L 38.518245 72.142724 
L 38.544909 72.099328 
L 38.624903 67.903589 
L 38.918213 48.219933 
L 38.944877 48.800073 
L 39.264852 61.45581 
L 39.531497 70.411439 
L 39.558161 70.564469 
L 39.61149 70.256126 
L 39.824807 65.610436 
L 39.878136 66.138044 
L 39.931465 67.209248 
L 39.984794 66.809545 
L 40.49142 58.310719 
L 40.518084 58.632765 
L 40.864723 64.431884 
L 40.998046 64.237742 
L 41.024711 64.089281 
L 41.07804 64.306263 
L 41.158033 65.83427 
L 41.238027 68.068038 
L 41.291356 67.544998 
L 41.344685 66.967142 
L 41.398014 67.2732 
L 41.424678 67.307461 
L 41.558001 64.201198 
L 41.61133 64.938935 
L 41.851311 68.963373 
L 41.877975 69.210047 
L 41.931304 68.805776 
L 41.984634 68.52941 
L 42.037963 68.805776 
L 42.064627 68.919977 
L 42.091292 68.57509 
L 42.49126 57.362852 
L 42.544589 58.429488 
L 43.051215 82.062209 
L 43.157873 80.034002 
L 43.531176 72.097044 
L 43.557841 72.199825 
L 43.637834 73.241336 
L 43.691163 72.88503 
L 43.851151 71.539744 
L 43.877815 71.89605 
L 44.011138 72.960402 
L 44.037802 72.837065 
L 44.14446 73.858021 
L 44.277783 76.411551 
L 44.331112 75.920488 
L 44.784409 65.603584 
L 44.864403 65.149065 
L 44.971061 64.370215 
L 45.02439 64.637445 
L 45.131048 65.781738 
L 45.157712 65.756613 
L 45.451022 61.389573 
L 45.477687 61.41013 
L 45.531016 61.43297 
L 45.664338 66.553735 
L 45.85099 70.308659 
L 45.957648 70.523356 
L 45.984313 70.642125 
L 46.010977 70.418292 
L 46.117635 66.540031 
L 46.304287 60.724925 
L 46.330952 60.784309 
L 46.490939 64.415896 
L 46.757584 71.857222 
L 46.784249 71.774997 
L 46.864242 70.466256 
L 47.157552 62.990669 
L 47.237546 64.758498 
L 47.530855 73.684435 
L 47.55752 73.41949 
L 47.637514 70.660397 
L 47.957488 54.085288 
L 48.010817 54.58092 
L 48.14414 61.736744 
L 48.410785 73.344117 
L 48.437449 73.181952 
L 48.570772 65.989583 
L 48.864082 52.077637 
L 48.944076 55.599591 
L 49.290714 73.595359 
L 49.370708 75.280963 
L 49.424037 74.572918 
L 49.504031 73.376093 
L 49.55736 73.762092 
L 49.824005 77.775109 
L 49.983992 84.026463 
L 50.037321 83.533116 
L 50.197308 78.999342 
L 50.490618 74.168647 
L 50.597276 73.935677 
L 50.623941 73.942529 
L 50.703934 74.387913 
L 50.730599 74.230315 
L 50.837257 71.172017 
L 51.317219 48.93483 
L 51.370548 49.20206 
L 51.477206 53.436627 
L 51.850509 69.961488 
L 51.903838 69.454436 
L 52.197148 64.178358 
L 52.250477 65.064556 
L 52.437129 67.81908 
L 52.463793 67.730004 
L 52.490458 67.894453 
L 52.543787 68.390085 
L 52.597116 67.912725 
L 52.810432 60.960178 
L 52.890426 61.663655 
L 52.943755 61.930885 
L 52.997084 61.786992 
L 53.050413 61.656803 
L 53.077077 61.926317 
L 53.477045 68.495149 
L 53.79702 77.443927 
L 53.903678 78.08802 
L 53.930342 78.044623 
L 54.010336 76.233398 
L 54.436968 61.71162 
L 54.463633 61.857797 
L 54.596956 65.361478 
L 54.783607 73.019787 
L 54.836936 71.656229 
L 55.156911 61.50149 
L 55.236904 60.893942 
L 55.290233 61.225124 
L 55.636872 68.812628 
L 55.690201 68.709847 
L 55.74353 68.734971 
L 55.770195 68.666451 
L 55.903517 67.332585 
L 55.956847 67.80766 
L 56.276821 72.103896 
L 56.303485 72.074204 
L 56.410144 70.532492 
L 56.543466 64.235458 
L 56.730118 57.234947 
L 56.756782 57.561561 
L 56.943434 65.569324 
L 57.236744 79.15694 
L 57.263408 79.127247 
L 57.396731 74.575202 
L 57.770034 62.606954 
L 57.823364 62.417381 
L 57.876693 61.962862 
L 57.930022 61.981134 
L 58.143338 64.584913 
L 58.170002 64.260582 
L 58.436648 61.270805 
L 58.516641 63.219071 
L 58.809951 75.376892 
L 58.86328 74.714527 
L 59.076596 62.721155 
L 59.289913 56.647955 
L 59.343242 57.650638 
L 59.769874 76.416119 
L 59.849868 75.127934 
L 60.116513 70.550765 
L 60.143178 70.920775 
L 60.356494 79.108975 
L 60.56981 83.770653 
L 60.623139 84.008191 
L 60.649804 83.834606 
L 60.809791 81.582565 
L 61.263088 62.527014 
L 61.289752 62.463061 
L 61.39641 64.49812 
L 61.636391 70.852255 
L 61.716385 69.148378 
L 62.196346 48.754393 
L 62.27634 50.739203 
L 62.836295 73.321277 
L 62.889624 72.89645 
L 62.996282 68.840036 
L 63.262927 59.30655 
L 63.342921 56.938025 
L 63.39625 57.225811 
L 63.582902 61.554023 
L 63.876212 74.913236 
L 63.956205 74.173215 
L 64.196186 71.779566 
L 64.489496 64.454724 
L 64.51616 64.46386 
L 64.569489 64.900107 
L 65.022786 71.669933 
L 65.076115 71.158313 
L 65.236102 65.921063 
L 65.342761 62.801096 
L 65.39609 62.810232 
L 65.822722 57.205255 
L 65.876051 57.506745 
L 65.956045 59.507544 
L 66.329348 70.719782 
L 66.409342 71.29307 
L 66.462671 71.149177 
L 66.516 71.277082 
L 66.542664 71.174301 
L 66.622658 70.004885 
L 66.862639 66.811829 
L 67.04929 64.767634 
L 67.075955 65.057704 
L 67.689239 79.979186 
L 67.715904 79.947209 
L 67.795897 79.234596 
L 67.902555 77.683749 
L 67.955884 78.154256 
L 68.035878 79.369353 
L 68.275859 87.132726 
L 68.382517 88.73839 
L 68.409181 88.615053 
L 68.51584 84.321101 
L 68.729156 66.672504 
L 68.969136 55.901081 
L 69.155788 54.873274 
L 69.289111 55.75262 
L 69.395769 56.341896 
L 69.422433 56.079234 
L 69.609085 53.260758 
L 69.63575 53.621632 
L 70.142376 70.454836 
L 70.249034 68.438049 
L 70.595673 57.554709 
L 70.675666 59.009628 
L 71.04897 70.180754 
L 71.395609 72.802805 
L 71.555596 74.709959 
L 71.688918 77.160709 
L 71.715583 76.898047 
L 71.902235 70.72435 
L 72.222209 52.143874 
L 72.275538 52.582405 
L 72.435525 58.228494 
L 72.835493 80.381173 
L 72.888822 79.842145 
L 73.075474 72.435078 
L 73.315455 65.153633 
L 73.848745 58.043489 
L 73.87541 58.281027 
L 74.035397 62.271204 
L 74.355371 69.63259 
L 74.4087 68.764663 
L 74.515358 66.878066 
L 74.568688 67.021959 
L 74.675346 66.517191 
L 74.70201 66.565155 
L 74.835333 69.031893 
L 75.021984 73.300721 
L 75.048649 73.076887 
L 75.128643 72.286617 
L 75.555275 60.736345 
L 75.608604 61.268521 
L 75.768591 63.61649 
L 76.221888 74.355936 
L 76.248553 74.378777 
L 76.301882 73.622767 
L 76.568527 66.896338 
L 76.595192 66.804977 
L 76.621856 66.967142 
L 76.781843 71.418691 
L 77.021824 87.121306 
L 77.181811 95.421423 
L 77.23514 94.907519 
L 77.421792 87.281187 
L 78.328386 48.886866 
L 78.435044 48.98051 
L 78.515038 49.734236 
L 78.755018 57.152722 
L 78.94167 63.376668 
L 78.994999 62.885604 
L 79.181651 58.874871 
L 79.23498 59.281426 
L 79.421632 65.626424 
L 79.661612 75.541341 
L 79.714942 75.303803 
L 79.8216 72.39625 
L 79.981587 62.051938 
L 80.168239 52.847351 
L 80.194903 52.867907 
L 80.301561 56.245968 
L 80.728194 81.196567 
L 80.754858 80.915632 
L 81.554794 54.681416 
L 81.661452 50.387465 
L 81.714781 51.125202 
L 81.901433 60.197317 
L 82.168078 72.848485 
L 82.248072 73.259608 
L 82.274736 73.143124 
L 82.408059 69.328816 
L 82.728033 59.751933 
L 82.808027 60.252133 
L 82.968014 62.049654 
L 82.994679 61.99027 
L 83.101337 62.62751 
L 83.287988 65.927915 
L 83.554634 71.414123 
L 83.634627 70.637557 
L 83.901273 65.480247 
L 84.087924 62.364849 
L 84.194582 61.624827 
L 84.221247 61.853229 
L 84.674544 71.103497 
L 84.701208 71.124053 
L 84.727873 71.016704 
L 84.807866 70.959604 
L 85.501144 78.505995 
L 86.00777 96.773561 
L 86.061099 95.752605 
L 86.194422 89.316246 
L 87.021022 40.401744 
L 87.047687 40.38804 
L 87.18101 42.397974 
L 87.314332 51.145758 
L 87.634307 72.850769 
L 87.7143 74.196055 
L 87.740965 73.670731 
L 88.140933 61.030983 
L 88.167597 61.305065 
L 88.460907 70.194458 
L 88.727552 75.418004 
L 88.780881 75.970736 
L 89.020862 79.124963 
L 89.12752 79.938073 
L 89.154185 79.890109 
L 89.234178 77.914434 
L 89.42083 66.978562 
L 89.71414 51.627686 
L 89.740804 51.563733 
L 89.820798 53.235634 
L 90.194101 66.697628 
L 90.24743 66.910042 
L 90.274095 66.759297 
L 90.460747 63.589082 
L 90.54074 63.598218 
L 90.647398 63.061474 
L 90.700727 63.299011 
L 90.780721 64.24231 
L 90.83405 63.977364 
L 91.207353 59.388775 
L 91.260682 59.507544 
L 91.340676 61.398709 
L 91.713979 72.613232 
L 91.767308 72.713728 
L 91.793973 72.549279 
L 92.567244 63.436052 
L 92.673902 63.646182 
L 92.727231 63.776371 
L 92.807225 63.072894 
L 92.887219 63.241911 
L 92.940548 63.858595 
L 92.993877 63.648466 
L 93.07387 63.034065 
L 93.127199 63.301295 
L 93.287187 67.003687 
L 93.553832 70.14421 
L 93.607161 69.733087 
L 93.713819 68.561386 
L 93.767148 68.956521 
L 93.873806 69.273999 
L 93.900471 69.095846 
L 93.927135 69.031893 
L 93.9538 69.194059 
L 94.033793 69.824447 
L 94.300439 80.081966 
L 94.673742 97.2395 
L 94.700407 97.330861 
L 94.727071 97.038507 
L 94.7804 97.25092 
L 95.047045 85.871949 
L 95.36702 56.56573 
L 95.633665 37.686048 
L 95.766988 35.429439 
L 95.793652 35.612161 
L 96.033633 45.396888 
L 96.220285 57.808235 
L 96.566924 78.761805 
L 96.726911 80.344628 
L 96.753575 80.529634 
L 96.806904 80.27154 
L 96.860233 79.947209 
L 97.020221 74.7899 
L 97.233537 70.626137 
L 97.260201 70.664965 
L 97.660169 75.436276 
L 97.740163 74.488409 
L 98.380112 55.359769 
L 98.593428 47.415959 
L 98.700086 44.930949 
L 98.753415 45.844555 
L 99.286706 73.15226 
L 99.340035 73.143124 
L 99.393364 72.932994 
L 99.660009 70.495948 
L 99.713338 70.81571 
L 99.819996 71.989695 
L 99.873325 71.841234 
L 100.246629 68.492865 
L 100.273293 68.533978 
L 100.299958 68.488297 
L 100.326622 68.543114 
L 100.459945 69.12097 
L 100.486609 69.100414 
L 100.539938 68.79664 
L 100.593267 69.022757 
L 100.619932 69.157514 
L 100.646596 69.077574 
L 100.753255 67.241224 
L 101.259881 52.374559 
L 101.286545 52.328879 
L 101.31321 52.461352 
L 101.499861 56.53147 
L 102.299797 81.285643 
L 102.406455 79.467566 
L 102.699765 74.052162 
L 102.72643 73.981358 
L 102.753094 74.214327 
L 103.099733 87.214951 
L 103.313049 96.385278 
L 103.393043 96.122616 
L 103.526366 91.159448 
L 103.952998 57.525017 
L 104.299637 27.161299 
L 104.352966 27.218399 
L 104.43296 30.333798 
L 104.699605 55.896513 
L 104.96625 73.291585 
L 105.126237 76.285931 
L 105.152902 75.998144 
L 105.232895 74.89268 
L 105.25956 74.543226 
L 105.286224 74.894964 
L 105.686192 84.067576 
L 105.766186 82.914147 
L 106.326141 64.514108 
L 106.512793 61.462662 
L 106.752774 54.786481 
L 107.046083 45.013173 
L 107.072748 45.195895 
L 107.152741 46.616553 
L 107.366058 58.386091 
L 108.006006 91.401553 
L 108.032671 91.458654 
L 108.059335 91.367293 
L 108.139329 90.408006 
L 108.245987 85.712068 
L 108.779278 53.157977 
L 108.939265 54.635736 
L 109.232575 60.213305 
L 109.285904 60.140216 
L 109.392562 61.663655 
L 109.472555 62.367133 
L 109.525885 62.079346 
L 109.579214 61.300497 
L 109.899188 53.014084 
L 110.032511 57.614094 
L 110.61913 89.432731 
L 110.672459 88.953087 
L 110.859111 80.858532 
L 111.285743 63.066042 
L 111.472395 60.514795 
L 111.49906 60.601588 
L 111.579053 61.627111 
L 111.73904 68.159399 
L 112.112344 101.35073 
L 112.192337 99.578333 
L 112.352325 91.29192 
L 112.592305 62.869616 
L 112.91228 31.183452 
L 112.938944 31.000731 
L 112.992273 31.110364 
L 113.045602 32.487626 
L 113.258919 48.082892 
L 113.658886 79.949493 
L 113.792209 81.991404 
L 113.898867 77.740849 
L 114.218842 62.990669 
L 114.245506 63.10487 
L 114.432158 69.315111 
L 114.832126 79.803316 
L 114.85879 79.79418 
L 114.912119 79.051875 
L 115.045442 68.070322 
L 115.44541 32.176999 
L 115.472074 32.076503 
L 115.552068 34.755654 
L 115.73872 53.610212 
L 116.112023 93.155678 
L 116.138688 93.320127 
L 116.165352 93.178518 
L 116.245346 91.673351 
L 116.378668 85.303229 
L 116.805301 59.610324 
L 116.991953 56.510914 
L 117.018617 56.490357 
L 117.071946 57.072782 
L 117.39192 66.142612 
L 117.471914 65.103385 
L 117.658566 58.399795 
L 117.97854 50.485677 
L 118.031869 51.205143 
L 118.138527 54.747653 
L 118.885134 89.124389 
L 118.938463 88.174238 
L 119.045121 82.902727 
L 119.498418 44.61347 
L 119.551747 45.424296 
L 119.68507 55.41687 
L 120.005044 78.024067 
L 120.085038 79.246016 
L 120.111702 78.976502 
L 120.27169 76.642237 
L 120.405012 78.764089 
L 120.591664 93.356672 
L 120.751651 105.907344 
L 120.80498 105.562457 
L 120.884974 101.752717 
L 121.071625 87.484465 
L 121.711574 15.841712 
L 121.764903 17.675777 
L 121.898226 31.2337 
L 122.484845 96.828377 
L 122.538174 95.453399 
L 122.938142 77.441643 
L 122.964807 77.548992 
L 123.071465 78.094872 
L 123.09813 77.807086 
L 123.258117 71.087508 
L 123.871401 35.701237 
L 123.898065 35.881674 
L 124.084717 42.466495 
L 124.378027 72.90787 
L 124.724666 108.120556 
L 124.75133 108.323833 
L 124.777995 107.791657 
L 124.911318 97.719144 
L 125.444608 47.226386 
L 125.497937 47.043664 
L 125.551266 47.180705 
L 125.63126 48.740689 
L 125.951234 56.816972 
L 126.004563 56.506346 
L 126.244544 52.15301 
L 126.324538 52.616665 
L 126.45786 58.091453 
L 126.991151 93.69699 
L 127.017815 93.201358 
L 127.151138 85.097667 
L 127.657764 44.992617 
L 127.684429 45.120522 
L 127.791087 46.815263 
L 127.977738 61.046971 
L 128.244384 77.09904 
L 128.377706 78.104008 
L 128.404371 77.957831 
L 128.537693 73.75524 
L 128.75101 69.593761 
L 128.857668 73.337265 
L 129.124313 100.286378 
L 129.337629 116.836364 
L 129.417623 113.131688 
L 129.630939 76.829527 
L 130.057572 5.938215 
L 130.084236 5.563636 
L 130.110901 6.143777 
L 130.217559 13.443494 
L 130.830843 104.998305 
L 130.857507 104.667122 
L 130.99083 95.686369 
L 131.310804 74.872124 
L 131.524121 70.774598 
L 131.57745 70.897935 
L 131.710772 68.392369 
L 131.924089 53.196805 
L 132.244063 29.641741 
L 132.270727 29.819894 
L 132.40405 35.091405 
L 132.564037 53.194521 
L 132.99067 112.809642 
L 133.017334 112.715997 
L 133.123992 107.07676 
L 133.310644 84.885254 
L 133.657283 47.130457 
L 133.683947 46.586861 
L 133.763941 47.214966 
L 134.030586 50.353205 
L 134.163909 52.376843 
L 134.190573 52.205542 
L 134.40389 50.604446 
L 134.430554 50.711795 
L 134.537212 55.748052 
L 135.097167 96.003847 
L 135.150497 95.480807 
L 135.23049 93.40692 
L 135.417142 73.974506 
L 135.790445 36.761021 
L 135.870439 39.314552 
L 136.030426 50.593026 
L 136.3504 77.903014 
L 136.430394 79.1912 
L 136.457058 78.828041 
L 136.910355 68.846888 
L 137.043678 70.749474 
L 137.310323 77.793382 
L 137.363652 77.656341 
L 137.710291 82.183262 
L 138.030266 90.204729 
L 138.110259 86.488633 
L 138.216917 75.824559 
L 138.616885 34.659726 
L 138.670214 33.867172 
L 138.723543 31.994278 
L 138.750208 32.869056 
L 139.016853 54.754505 
L 139.390157 86.91346 
L 139.550144 90.876229 
L 139.576808 90.67752 
L 139.656802 89.277418 
L 140.803377 33.513149 
L 140.856706 35.893095 
L 141.043357 55.789164 
L 141.46999 104.134947 
L 141.496654 104.443289 
L 141.523319 104.025314 
L 141.629977 96.922022 
L 142.109938 57.182415 
L 142.429913 49.060451 
L 142.643229 46.963724 
L 142.723223 48.642476 
L 142.909874 60.15392 
L 143.336507 89.391619 
L 143.389836 89.784469 
L 143.4165 89.576624 
L 143.549823 86.120907 
L 143.789804 72.076488 
L 144.269765 44.074443 
L 144.349759 46.39272 
L 145.016372 78.480871 
L 145.043037 78.305001 
L 145.389676 74.483841 
L 145.443005 75.018301 
L 145.469669 74.561498 
L 145.736314 68.556818 
L 145.789643 68.851456 
L 145.816308 68.814912 
L 145.976295 66.327618 
L 146.029624 66.946586 
L 146.136282 67.154432 
L 146.216276 66.546883 
L 146.24294 66.921462 
L 146.429592 76.297351 
L 146.82956 104.203467 
L 146.909554 101.713889 
L 147.016212 87.505021 
L 147.41618 20.523946 
L 147.442844 20.183627 
L 147.469509 21.216003 
L 147.602831 29.966071 
L 148.082793 91.154879 
L 148.136122 90.428562 
L 148.296109 84.017327 
L 148.322774 84.496971 
L 148.349438 84.782473 
L 148.402767 84.389622 
L 148.429432 84.353078 
L 148.482761 82.427652 
L 148.669413 75.379176 
L 148.722742 74.954349 
L 148.856064 71.210845 
L 149.06938 55.204456 
L 149.36269 35.301534 
L 149.416019 34.78763 
L 149.442684 35.00918 
L 149.549342 39.894692 
L 149.735994 59.861566 
L 150.055968 98.491141 
L 150.135962 100.866519 
L 150.189291 99.861551 
L 150.295949 92.584674 
L 150.722581 56.243684 
L 150.77591 56.115779 
L 151.015891 51.159462 
L 151.229207 43.73184 
L 151.255872 43.95339 
L 151.335865 45.264415 
L 151.522517 54.845865 
L 151.975814 95.754889 
L 152.029143 94.551212 
L 152.215795 82.208386 
L 152.722421 47.192125 
L 152.77575 46.765014 
L 152.829079 46.975144 
L 152.855744 47.032244 
L 152.882408 46.908907 
L 152.909073 46.776434 
L 152.935737 46.902055 
L 153.042395 52.15301 
L 153.655679 82.688029 
L 153.682344 82.690313 
L 153.762337 79.70282 
L 154.108976 64.221754 
L 154.162305 64.740226 
L 154.18897 65.023444 
L 154.215634 64.77677 
L 154.48228 62.252932 
L 154.535609 62.339724 
L 154.615602 62.661771 
L 154.748925 66.839237 
L 155.335545 98.418053 
L 155.442203 97.134435 
L 155.708848 82.532716 
L 156.162145 23.397239 
L 156.18881 23.109453 
L 156.375461 32.617815 
L 156.855423 97.579819 
L 156.882087 97.52957 
L 156.935416 95.681801 
L 156.988745 97.079619 
L 157.01541 97.248636 
L 157.068739 97.061347 
L 157.122068 96.273361 
L 157.255391 88.331835 
L 157.548701 61.755016 
L 157.708688 45.465409 
L 157.948668 25.971326 
L 157.975333 26.199728 
L 158.081991 30.699241 
L 158.241978 50.284684 
L 158.668611 105.452824 
L 158.72194 103.949941 
L 158.828598 98.068598 
L 159.468547 48.578524 
L 159.495211 48.987363 
L 159.655198 50.711795 
L 159.84185 46.783286 
L 159.921844 48.009803 
L 160.055166 54.813889 
L 160.588457 96.408118 
L 160.615121 96.323609 
L 160.721779 91.2805 
L 161.25507 41.765302 
L 161.281735 42.249513 
L 161.495051 53.822626 
L 161.84169 68.591078 
L 162.134999 75.963884 
L 162.241658 76.135185 
L 162.428309 74.91552 
L 162.454974 75.013733 
L 162.481638 74.890396 
L 163.068258 61.476366 
L 163.308239 64.699114 
L 163.628213 76.523468 
L 163.948187 88.816046 
L 164.161504 96.709608 
L 164.188168 96.088356 
L 164.37482 89.035312 
L 164.534807 66.060388 
L 164.801452 23.751262 
L 164.854781 21.707067 
L 164.90811 23.431499 
L 164.988104 28.826347 
L 165.334743 83.670157 
L 165.521395 101.528883 
L 165.601388 99.610309 
L 165.654717 96.746152 
L 165.868033 82.626361 
L 166.721298 33.734699 
L 166.747963 34.609477 
L 166.90795 46.406424 
L 167.414576 106.99682 
L 167.441241 106.176858 
L 167.681221 82.818218 
L 168.134518 42.039384 
L 168.187847 42.630944 
L 168.294506 47.057368 
L 168.507822 53.235634 
L 168.587815 54.270293 
L 168.721138 61.033267 
L 169.2011 93.260743 
L 169.254429 92.296888 
L 169.414416 80.111659 
L 169.787719 42.742861 
L 169.814384 42.854778 
L 169.921042 43.565107 
L 170.054364 49.880413 
L 170.507661 76.651373 
L 170.560991 77.448495 
L 170.640984 77.28633 
L 170.8543 73.942529 
L 171.120946 66.850657 
L 171.307597 67.853341 
L 171.387591 67.531294 
L 171.73423 62.362565 
L 171.787559 62.508742 
L 171.814223 62.29176 
L 171.840888 62.147867 
L 172.614159 83.021496 
L 172.907469 99.73593 
L 172.960798 98.267308 
L 173.14745 87.961824 
L 173.520753 15.149655 
L 173.654076 19.74738 
L 173.920721 59.167225 
L 174.187366 100.907631 
L 174.214031 100.916767 
L 174.640663 78.453462 
L 174.827315 68.680155 
L 175.09396 50.52679 
L 175.440599 34.198354 
L 175.493928 36.082668 
L 176.027219 100.889359 
L 176.080548 99.637718 
L 176.160542 98.950229 
L 176.2672 86.997969 
L 176.560509 53.457183 
L 176.720497 46.191726 
L 176.80049 46.79699 
L 176.907148 47.79739 
L 177.227123 64.077861 
L 177.280452 63.39494 
L 177.307116 63.353828 
L 177.493768 67.563271 
L 177.893736 85.620707 
L 178.000394 87.326867 
L 178.027059 86.627958 
L 178.187046 74.127535 
L 178.560349 41.886354 
L 178.587014 42.153584 
L 178.80033 55.67268 
L 179.09364 76.098641 
L 179.120304 76.244818 
L 179.413614 72.15186 
L 179.520272 71.341034 
L 179.546937 71.500915 
L 179.680259 72.887314 
L 180.240214 58.799498 
L 180.266879 58.363251 
L 180.320208 59.233462 
L 180.373537 60.115092 
L 180.74684 72.654344 
L 180.773505 72.702308 
L 180.880163 70.557617 
L 180.933492 69.691974 
L 181.013486 69.826731 
L 181.066815 69.790187 
L 181.146808 68.671019 
L 181.200137 69.385916 
L 181.306796 74.630018 
L 181.706763 102.648052 
L 181.733428 102.842193 
L 181.760093 102.588667 
L 181.893415 97.056779 
L 182.026738 74.154943 
L 182.320048 14.797916 
L 182.346712 15.921652 
L 183.013325 104.909228 
L 183.093319 97.625499 
L 183.493287 73.963086 
L 183.86659 53.763242 
L 184.1599 30.020888 
L 184.346552 40.975032 
L 184.74652 97.314873 
L 184.826513 103.901977 
L 184.879842 102.161556 
L 185.119823 74.595758 
L 185.359804 52.374559 
L 185.466462 50.82828 
L 185.546456 48.114868 
L 185.599785 48.736121 
L 185.733107 50.714079 
L 186.133075 64.46386 
L 186.239733 68.933681 
L 186.639701 87.486749 
L 186.666366 87.468476 
L 186.746359 85.353477 
L 186.906347 72.592675 
L 187.226321 42.984967 
L 187.252985 43.010091 
L 187.359644 46.778718 
L 187.492966 54.101276 
L 187.86627 75.33578 
L 187.892934 75.568749 
L 187.919599 75.402016 
L 188.079586 69.605182 
L 188.212908 70.093961 
L 188.239573 69.952352 
L 188.292902 70.146494 
L 188.372896 71.153745 
L 188.39956 70.728918 
L 188.639541 66.151748 
L 188.746199 67.254928 
L 188.959515 64.724238 
L 189.092838 61.508342 
L 189.119502 61.985702 
L 189.359483 66.190577 
L 189.386148 65.969027 
L 189.412812 65.516792 
L 189.466141 66.039831 
L 189.786116 72.368842 
L 189.892774 71.357022 
L 189.972767 70.135073 
L 189.999432 70.340635 
L 190.132755 76.187718 
L 190.586052 104.502673 
L 190.666045 103.337825 
L 190.746039 98.418053 
L 190.906026 69.778767 
L 191.199336 13.945978 
L 191.226 14.167527 
L 191.572639 56.570298 
L 191.892613 101.375854 
L 191.919278 101.215973 
L 192.452569 69.863275 
L 192.479233 69.902104 
L 192.532562 67.572407 
L 192.852536 45.709799 
L 192.93253 41.78129 
L 193.039188 34.803619 
L 193.065853 35.751486 
L 193.305833 55.654407 
L 193.732466 99.491541 
L 193.75913 98.906832 
L 194.079105 70.543912 
L 194.399079 51.995413 
L 194.452408 50.880812 
L 194.505737 51.161746 
L 194.665724 54.462151 
L 195.145686 71.352454 
L 195.438996 85.579595 
L 195.46566 85.577311 
L 195.518989 84.773337 
L 195.732306 70.055133 
L 196.05228 48.050916 
L 196.078944 47.909307 
L 196.318925 53.740401 
L 196.825551 76.087221 
L 197.492164 62.019962 
L 197.572158 63.248763 
L 197.652152 64.482132 
L 197.732145 64.319967 
L 197.812139 64.774486 
L 197.865468 63.735259 
L 197.918797 64.153234 
L 198.025455 65.546484 
L 198.078784 64.966344 
L 198.132113 64.701398 
L 198.158778 64.918379 
L 198.212107 65.656117 
L 198.265436 65.208449 
L 198.372094 65.439135 
L 198.558746 67.924145 
L 198.772062 70.340635 
L 199.065372 88.875431 
L 199.358681 109.006754 
L 199.385346 108.887985 
L 199.438675 107.341706 
L 199.598662 89.770765 
L 200.051959 13.171696 
L 200.131953 20.530798 
L 200.771901 101.480919 
L 200.798566 100.126497 
L 200.985218 90.236705 
L 201.598502 50.899085 
L 201.865147 27.451369 
L 201.891812 27.277783 
L 202.078463 44.158951 
L 202.558425 101.668209 
L 202.585089 101.526599 
L 202.665083 94.884679 
L 203.065051 59.509828 
L 203.331696 49.73652 
L 203.491683 49.50355 
L 203.678335 54.418754 
L 203.864987 65.279254 
L 204.211626 86.730739 
L 204.23829 86.470361 
L 204.398277 84.165788 
L 204.82491 51.878928 
L 204.958232 45.280403 
L 204.984897 45.524793 
L 205.11822 46.664518 
L 205.224878 53.934543 
L 205.65151 82.50074 
L 205.678175 82.539568 
L 205.758168 79.563495 
L 206.131472 64.936651 
L 206.344788 61.921749 
L 206.398117 61.597419 
L 206.424782 61.720756 
L 206.53144 62.625226 
L 206.558104 62.606954 
L 206.638098 61.259384 
L 206.691427 62.042802 
L 206.744756 62.554422 
L 207.171388 73.2322 
L 207.198053 72.763977 
L 207.384705 69.790187 
L 207.438034 69.196343 
L 207.624685 63.927116 
L 207.65135 64.406759 
L 207.704679 64.21947 
L 207.784672 65.411727 
L 207.864666 69.321964 
L 208.291299 111.434664 
L 208.344628 109.975177 
L 208.47795 101.558576 
L 208.664602 61.595135 
L 208.931247 7.468506 
L 208.984576 6.561752 
L 209.011241 8.251924 
L 209.677854 106.003272 
L 209.784512 95.430559 
L 210.797764 27.638658 
L 210.824429 28.72585 
L 211.01108 49.576639 
L 211.384384 99.815871 
L 211.491042 102.917566 
L 211.544371 100.948743 
L 212.050997 49.556083 
L 212.104326 49.878129 
L 212.130991 49.859857 
L 212.237649 47.706029 
L 212.264313 48.277033 
L 212.530959 57.579833 
L 212.904262 66.766149 
L 213.30423 88.002936 
L 213.330894 87.591813 
L 213.464217 82.772538 
L 213.970843 42.247229 
L 213.997508 42.893606 
L 214.290817 64.847575 
L 214.557463 79.77134 
L 214.610792 80.06141 
L 214.637456 79.746216 
L 214.770779 74.979473 
L 215.144082 63.689578 
L 215.25074 62.266636 
L 215.30407 62.979249 
L 215.357399 63.561673 
L 215.517386 66.654232 
L 215.54405 66.215701 
L 215.704037 64.278855 
L 215.730702 64.333671 
L 215.970683 66.268233 
L 216.317322 72.190689 
L 216.397315 72.880462 
L 216.42398 72.499031 
L 216.663961 68.020074 
L 216.71729 68.424345 
L 216.797283 71.717897 
L 217.063928 98.680715 
L 217.25058 110.132775 
L 217.277245 109.79474 
L 217.383903 102.511011 
L 217.623884 52.956984 
L 217.8372 16.287095 
L 217.917193 12.580136 
L 217.943858 14.167527 
L 218.637136 108.150248 
L 219.570394 30.923074 
L 219.623723 32.464785 
L 219.677052 31.418706 
L 219.703717 30.818009 
L 219.730381 31.217712 
L 219.837039 42.57156 
L 220.396995 105.541901 
L 220.423659 105.308931 
L 220.503653 97.426789 
L 220.930285 42.436803 
L 220.983614 40.824287 
L 221.036943 41.379303 
L 221.223595 47.612384 
L 221.516905 65.119373 
L 221.78355 71.934879 
L 222.103524 84.353078 
L 222.130189 84.325669 
L 222.210182 82.697166 
L 222.423499 70.093961 
L 222.743473 46.605133 
L 222.823467 46.219134 
L 222.850131 46.342471 
L 223.010118 53.450331 
L 223.19677 65.007456 
L 223.463415 77.407383 
L 223.703396 74.260008 
L 223.996706 63.609638 
L 224.02337 63.404076 
L 224.103364 63.541117 
L 224.156693 63.712418 
L 224.210022 63.520561 
L 224.476667 65.103385 
L 224.503332 65.283822 
L 224.556661 64.982332 
L 224.689984 63.44062 
L 224.743313 63.60507 
L 224.769977 63.648466 
L 224.823306 64.013909 
L 224.876635 63.607354 
L 224.929964 63.509141 
L 224.956629 63.680442 
L 225.143281 66.217985 
L 225.276603 66.023843 
L 225.489919 67.401105 
L 225.516584 67.14758 
L 225.543249 67.595247 
L 225.703236 75.328928 
L 226.129868 106.014692 
L 226.263191 104.584898 
L 226.423178 89.526376 
L 226.60983 53.774662 
L 226.84981 17.442807 
L 226.876475 16.72791 
L 226.903139 17.652937 
L 226.983133 22.602401 
L 227.596417 108.198212 
L 227.676411 102.627496 
L 228.103043 65.615004 
L 228.716327 31.462102 
L 228.796321 37.199552 
L 229.356276 104.073278 
L 229.409605 103.271588 
L 229.489599 97.678031 
L 229.916231 49.837017 
L 229.96956 47.258362 
L 230.049554 47.555284 
L 230.102883 48.293021 
L 230.156212 47.502752 
L 230.182877 47.553 
L 230.316199 51.572869 
L 230.689503 71.188005 
L 231.009477 86.500053 
L 231.08947 86.050102 
L 231.276122 80.705503 
L 231.489438 65.873098 
L 231.809413 46.235122 
L 231.836077 46.143762 
L 231.862742 46.296791 
L 231.996064 48.117152 
L 232.102723 53.235634 
L 232.529355 81.963996 
L 232.55602 81.794979 
L 232.662678 79.035887 
L 232.796 74.084138 
L 233.062646 62.540718 
L 233.08931 62.141015 
L 233.142639 62.595534 
L 233.222633 62.839924 
L 233.249297 62.755415 
L 233.489278 60.462263 
L 233.515943 60.581031 
L 233.649265 62.339724 
L 233.67593 62.300896 
L 233.702594 62.271204 
L 233.755923 62.89474 
L 233.915911 64.402191 
L 233.995904 64.550653 
L 234.155891 65.870814 
L 234.182556 65.84569 
L 234.20922 65.911927 
L 234.395872 66.731889 
L 234.422537 66.725036 
L 234.475866 66.291073 
L 234.50253 66.6017 
L 234.635853 73.501714 
L 235.222472 103.452026 
L 235.249137 102.627496 
L 235.462453 89.222601 
L 235.755763 38.873736 
L 235.969079 17.161873 
L 235.995744 17.125329 
L 236.155731 33.775811 
L 236.50237 90.91049 
L 236.689021 106.919163 
L 236.715686 106.690761 
L 237.115654 72.416806 
L 237.542286 42.747429 
L 237.728938 35.427155 
L 237.808932 36.370454 
L 237.862261 37.706604 
L 238.235564 81.112058 
L 238.528874 102.049639 
L 238.582203 100.44626 
L 238.848848 69.602898 
L 239.195487 43.444054 
L 239.248816 42.144448 
L 239.302145 43.172256 
L 239.515462 56.33276 
L 239.888765 77.907582 
L 240.128746 83.478299 
L 240.15541 83.526264 
L 240.182075 83.409779 
L 240.342062 81.950292 
L 240.475385 75.143922 
L 240.902017 43.2088 
L 240.955346 44.03333 
L 241.062004 47.500468 
L 241.195327 55.955898 
L 241.595295 83.425767 
L 241.621959 83.386939 
L 241.701953 81.294779 
L 242.208579 57.351432 
L 242.315237 59.021048 
L 242.341902 59.343094 
L 242.368566 58.945675 
L 242.421895 57.808235 
L 242.475224 59.011912 
L 242.901857 68.259896 
L 242.955186 67.095047 
L 243.061844 63.422348 
L 243.115173 63.876868 
L 243.595134 73.969938 
L 244.288412 97.577535 
L 244.448399 92.459053 
L 244.68838 76.987124 
L 244.795038 54.437026 
L 244.955025 21.684226 
L 244.98169 22.456224 
L 245.115013 26.964873 
L 245.51498 77.624364 
L 245.754961 107.759681 
L 245.781626 108.335253 
L 245.80829 107.560972 
L 246.581562 44.042466 
L 246.608226 44.293708 
L 246.661555 42.957558 
L 246.768213 38.58595 
L 246.821542 39.31912 
L 246.848207 39.613758 
L 246.901536 38.971949 
L 246.9282 39.145534 
L 247.061523 52.390547 
L 247.621478 106.992252 
L 247.648143 106.777554 
L 247.754801 94.19719 
L 248.234762 39.065594 
L 248.368085 35.025168 
L 248.39475 35.598456 
L 248.661395 58.5277 
L 249.114692 85.015442 
L 249.194685 85.362613 
L 249.301344 86.486349 
L 249.328008 86.379 
L 249.51466 81.587133 
L 249.674647 68.970225 
L 249.967957 43.603935 
L 250.101279 42.388838 
L 250.181273 43.473746 
L 250.34126 52.036525 
L 250.794557 87.856759 
L 250.821222 87.822499 
L 250.874551 87.514157 
L 251.007873 83.793494 
L 251.167861 70.098529 
L 251.407841 56.367021 
L 251.621158 52.107329 
L 251.647822 52.068501 
L 251.75448 55.419154 
L 252.207777 70.125937 
L 252.261106 70.071121 
L 252.447758 72.473907 
L 252.501087 71.973707 
L 252.821061 71.062384 
L 252.87439 70.473108 
L 252.901055 70.671817 
L 253.007713 74.54551 
L 253.567668 97.840196 
L 253.807649 88.939383 
L 254.074294 51.782999 
L 254.260946 25.854841 
L 254.314275 24.061888 
L 254.367604 26.003302 
L 254.660914 49.071871 
L 254.820901 80.625562 
L 255.034217 106.581128 
L 255.114211 101.713889 
L 255.620837 55.642987 
L 255.99414 40.607305 
L 256.154127 37.019115 
L 256.180792 37.633515 
L 256.420773 62.951841 
L 256.820741 101.38499 
L 256.87407 103.758084 
L 256.927399 101.807534 
L 257.140715 76.308771 
L 257.434025 47.374847 
L 257.620676 36.66966 
L 257.674006 37.555859 
L 257.807328 44.647731 
L 258.260625 81.246815 
L 258.500606 91.090927 
L 258.52727 91.010986 
L 258.793916 81.826955 
L 258.980567 64.760782 
L 259.273877 36.059828 
L 259.4072 35.150789 
L 259.460529 36.690216 
L 259.673845 58.269607 
L 259.99382 91.872061 
L 260.207136 90.140776 
L 260.340458 85.597867 
L 260.927078 44.04475 
L 260.953743 44.186359 
L 261.11373 49.311693 
L 261.673685 78.508279 
L 261.780343 79.903813 
L 261.833672 79.627447 
L 262.286969 67.736856 
L 262.340298 68.084026 
L 262.393627 68.613918 
L 262.606943 79.298549 
L 262.900253 99.571481 
L 263.006911 100.4691 
L 263.033576 99.948344 
L 263.140234 95.478523 
L 263.300221 81.15317 
L 263.64686 25.567055 
L 263.673524 25.350073 
L 263.700189 25.573907 
L 263.886841 31.297653 
L 264.046828 55.435142 
L 264.340138 103.24418 
L 264.366802 103.415481 
L 264.47346 95.494511 
L 265.06008 56.172879 
L 265.220067 48.564819 
L 265.486712 32.617815 
L 265.540041 33.896864 
L 265.673364 44.841872 
L 265.966674 79.892393 
L 266.206655 107.930982 
L 266.286648 103.618759 
L 266.953261 31.848101 
L 267.05992 36.169461 
L 267.779862 90.743756 
L 267.833191 89.35279 
L 268.259823 67.878465 
L 268.579798 40.070561 
L 268.766449 33.567966 
L 268.793114 33.851184 
L 268.873108 38.645335 
L 269.166417 82.461912 
L 269.379734 97.876741 
L 269.406398 98.111994 
L 269.459727 97.598091 
L 269.566385 93.553097 
L 269.753037 72.195257 
L 270.046347 44.433033 
L 270.206334 39.960928 
L 270.232998 40.008893 
L 270.312992 42.160437 
L 270.526308 61.314201 
L 270.872947 83.583364 
L 271.00627 85.597867 
L 271.032934 85.529346 
L 271.112928 84.305113 
L 271.699548 58.297015 
L 271.752877 59.146669 
L 271.859535 63.922548 
L 272.472819 112.259194 
L 272.499483 111.101198 
L 272.739464 82.973532 
L 273.112768 16.867235 
L 273.192761 15.220459 
L 273.219426 16.166042 
L 273.406077 35.54364 
L 273.886039 105.678942 
L 273.912703 105.480232 
L 274.286007 81.539169 
L 274.872626 27.156731 
L 274.899291 26.932897 
L 274.95262 27.03111 
L 275.032614 30.249289 
L 275.219265 52.047945 
L 275.672562 110.35204 
L 275.699227 109.911225 
L 275.805885 102.62978 
L 276.152524 55.065131 
L 276.419169 31.886929 
L 276.445834 31.679084 
L 276.472498 31.998846 
L 276.579156 37.455362 
L 277.24577 90.46739 
L 277.272434 90.330349 
L 277.432421 86.965993 
L 277.565744 79.769056 
L 278.205693 37.473634 
L 278.232357 37.587835 
L 278.339015 42.793109 
L 278.632325 80.678095 
L 278.845641 96.657076 
L 278.872306 96.853501 
L 278.925635 96.46065 
L 279.032293 91.853789 
L 279.218945 70.827131 
L 279.538919 39.942656 
L 279.618913 38.190815 
L 279.672242 38.581382 
L 279.752235 40.721506 
L 279.938887 55.640703 
L 280.338855 87.865895 
L 280.392184 88.596781 
L 280.445513 88.160534 
L 280.525507 86.899756 
L 280.685494 75.767459 
L 281.032133 55.336929 
L 281.085462 54.507831 
L 281.165455 54.820741 
L 281.298778 60.60844 
L 281.645417 101.462647 
L 281.858733 115.621267 
L 281.885398 115.657811 
L 281.938727 113.924242 
L 282.125378 89.359642 
L 282.525346 11.122933 
L 282.578675 13.260773 
L 282.765327 27.64551 
L 283.298618 106.256798 
L 283.378611 103.223624 
L 283.538598 97.360553 
L 283.645256 90.41029 
L 284.285205 28.406088 
L 284.338534 28.602513 
L 284.391863 29.943231 
L 284.578515 46.20543 
L 284.951818 100.064829 
L 285.111805 112.642909 
L 285.13847 112.300306 
L 285.245128 103.468014 
L 285.831748 31.681368 
L 285.858412 31.68822 
L 285.911741 32.75714 
L 286.125058 49.46929 
L 286.711677 88.404923 
L 286.845 90.716348 
L 286.898329 89.752493 
L 287.084981 80.3629 
L 287.564942 40.589033 
L 287.6716 39.177511 
L 287.698265 39.193499 
L 287.751594 40.184762 
L 287.911581 55.579035 
L 288.284884 92.107314 
L 288.364878 94.507816 
L 288.418207 93.966504 
L 288.524865 88.583077 
L 289.111485 45.077126 
L 289.164814 45.284971 
L 289.218143 46.783286 
L 289.938085 85.837689 
L 289.96475 85.506506 
L 290.20473 71.432395 
L 290.524705 55.805152 
L 290.578034 54.631168 
L 290.631363 55.398597 
L 290.711356 59.416183 
L 291.297976 112.288886 
L 291.37797 110.313212 
L 291.484628 99.589753 
L 291.804602 41.390723 
L 291.991254 16.935756 
L 292.017918 18.822354 
L 292.284564 39.517829 
L 292.49788 74.344516 
L 292.79119 102.714288 
L 292.844519 104.253715 
L 292.897848 103.177944 
L 293.537797 49.044463 
L 293.777777 33.979089 
L 293.857771 32.652075 
L 293.884435 32.999245 
L 293.991093 37.016831 
L 294.177745 56.2414 
L 294.604378 107.117872 
L 294.711036 102.46533 
L 294.951017 76.19457 
L 295.377649 36.04384 
L 295.510972 38.22736 
L 296.284243 87.660334 
L 296.390901 88.985064 
L 296.417566 88.909691 
L 296.577553 81.182862 
L 296.870863 56.732463 
L 297.137508 42.073644 
L 297.217501 42.185561 
L 297.32416 46.454388 
L 297.964108 88.370663 
L 297.990773 88.274734 
L 298.097431 82.909579 
L 298.684051 49.174652 
L 298.764044 50.889948 
L 299.030689 67.921861 
L 299.297335 76.564581 
L 299.350664 77.083052 
L 299.430657 77.073916 
L 299.510651 75.212443 
L 299.830625 69.874696 
L 299.963948 68.348972 
L 300.123935 66.217985 
L 300.230593 67.570123 
L 300.417245 79.099839 
L 300.790548 107.830486 
L 300.843877 107.174973 
L 300.950535 99.514381 
L 301.163852 67.083627 
L 301.510491 17.86535 
L 301.537155 17.376571 
L 301.56382 18.534567 
L 301.8038 44.186359 
L 302.150439 94.941779 
L 302.257097 101.332458 
L 302.310426 100.226994 
L 303.403672 32.00113 
L 303.457001 32.990109 
L 303.590324 42.877618 
L 304.123614 106.551436 
L 304.203608 103.904261 
L 304.443589 78.16796 
L 304.843557 38.914849 
L 304.92355 36.904914 
L 304.950215 37.800249 
L 305.990131 88.279302 
L 306.016796 88.240474 
L 306.096789 87.240075 
L 306.230112 79.657139 
L 306.736738 40.426868 
L 306.763403 40.207602 
L 306.790067 40.219022 
L 306.870061 43.058055 
L 307.136706 66.048968 
L 307.483345 87.984664 
L 307.51001 87.929848 
L 307.590003 86.2648 
L 307.856648 70.696942 
L 308.203287 55.480822 
L 308.229952 55.457982 
L 308.309945 56.383009 
L 309.296533 76.655941 
L 309.376527 75.863387 
L 309.696501 69.187207 
L 309.74983 70.030009 
L 309.803159 71.267946 
L 310.04314 90.197876 
L 310.28312 106.864347 
L 310.309785 106.921447 
L 310.363114 104.93892 
L 310.549766 82.386539 
L 310.923069 16.056409 
L 311.029727 18.116592 
L 311.216379 39.725675 
L 311.643011 98.740099 
L 311.69634 99.939208 
L 311.723005 99.795315 
L 312.922909 33.750687 
L 312.949573 34.095573 
L 313.109561 42.498471 
L 313.376206 80.60729 
L 313.616187 105.587581 
L 313.642851 105.642398 
L 313.776174 101.033252 
L 313.98949 75.066266 
L 314.336129 41.381587 
L 314.362793 41.687645 
L 314.549445 45.92678 
L 315.002742 65.340922 
L 315.056071 66.371014 
L 315.589362 88.498568 
L 315.69602 86.870064 
L 315.829342 80.881372 
L 316.042659 60.457695 
L 316.309304 40.785458 
L 316.335968 40.72379 
L 316.442627 43.026079 
L 316.602614 53.776946 
L 317.002582 83.590216 
L 317.055911 83.635896 
L 317.082575 83.56966 
L 317.215898 80.997857 
L 317.375885 73.483442 
L 317.695859 59.703969 
L 317.749188 59.923235 
L 317.802518 59.781626 
L 317.882511 59.233462 
L 317.93584 59.546372 
L 318.015834 59.50526 
L 318.255815 63.591366 
L 318.52246 69.778767 
L 318.789105 77.777393 
L 318.869099 79.00391 
L 318.922428 78.71384 
L 318.975757 78.186232 
L 319.189073 75.842831 
L 319.242402 75.632702 
L 319.269067 76.027837 
L 319.402389 81.73331 
L 319.749028 105.265535 
L 319.829022 102.712004 
L 320.015673 81.484353 
L 320.46897 17.0294 
L 320.522299 19.032483 
L 320.602293 23.703297 
L 321.162248 99.005045 
L 321.242242 97.913285 
L 321.3489 93.840883 
L 321.535552 80.716923 
L 321.775532 66.355026 
L 322.015513 59.496124 
L 322.495475 35.294682 
L 322.548804 36.064396 
L 322.735455 49.158664 
L 323.215417 108.2142 
L 323.242081 108.031479 
L 323.34874 103.406345 
L 323.535391 82.429936 
L 323.962024 36.564596 
L 323.988688 36.144336 
L 324.042017 36.509779 
L 324.122011 37.964698 
L 324.361992 55.311805 
L 324.788624 74.721379 
L 325.241921 88.00522 
L 325.29525 87.075626 
L 325.428573 81.226259 
L 325.961863 39.111274 
L 325.988528 39.248315 
L 326.068521 41.578012 
L 326.361831 65.290674 
L 326.70847 85.177608 
L 326.788464 83.35953 
L 327.428412 62.3146 
L 327.481741 62.339724 
L 327.855045 64.153234 
L 327.935038 63.538833 
L 327.961703 63.666738 
L 328.255013 70.014021 
L 328.894961 93.717546 
L 329.134942 102.428786 
L 329.161607 101.892042 
L 329.214936 101.286778 
L 329.374923 87.486749 
L 329.908214 16.476668 
L 329.961543 17.744298 
L 330.014872 18.089184 
L 330.12153 30.30639 
L 330.708149 95.33463 
L 330.814808 93.845451 
L 330.974795 88.411775 
L 331.374763 70.692374 
L 331.53475 59.656005 
L 331.908053 30.495963 
L 331.961382 29.162097 
L 332.014711 29.959219 
L 332.174698 38.757252 
L 332.787983 107.138429 
L 332.867976 105.580729 
L 333.081292 84.784757 
L 333.561254 39.556657 
L 333.641248 38.84176 
L 333.667912 39.106706 
L 334.014551 50.926493 
L 334.787822 89.405323 
L 334.814487 89.396187 
L 334.867816 88.530544 
L 335.027803 80.611858 
L 335.401106 52.545861 
L 335.614423 43.281889 
L 335.667752 42.813665 
L 335.694416 43.320717 
L 336.014391 58.865735 
L 336.334365 76.936875 
L 336.414359 78.341546 
L 336.467688 77.982955 
L 336.654339 75.742335 
L 337.027643 66.407558 
L 337.054307 66.201997 
L 337.134301 66.286505 
L 337.294288 66.521759 
L 337.347617 66.597132 
L 337.400946 67.14758 
L 337.587598 69.196343 
L 337.640927 69.520673 
L 337.800914 70.340635 
L 337.960901 71.409555 
L 338.147553 78.40093 
L 338.60085 107.851042 
L 338.680843 105.827403 
L 338.787502 97.166412 
L 339.080811 42.302046 
L 339.320792 17.406263 
L 339.347457 17.570712 
L 339.534108 28.081757 
L 339.960741 79.910665 
L 340.174057 88.820614 
L 340.227386 88.861727 
L 340.30738 89.583476 
L 340.360709 89.382482 
L 340.734012 78.560811 
L 341.080651 57.915584 
L 341.320632 40.837991 
L 341.533948 31.612847 
L 341.587277 30.765477 
L 341.613942 31.464386 
L 341.827258 49.158664 
L 342.307219 105.345475 
L 342.360548 105.087382 
L 342.413877 104.63743 
L 342.5472 95.001164 
L 342.733852 75.408868 
L 343.080491 48.069188 
L 343.240478 44.476429 
L 343.320471 42.345442 
L 343.3738 43.478314 
L 344.520375 89.355074 
L 344.54704 89.473843 
L 344.573704 89.439583 
L 344.707027 84.469562 
L 345.400305 46.4384 
L 345.480298 46.529761 
L 345.560292 47.354291 
L 345.693614 51.298787 
L 345.96026 66.133476 
L 346.226905 76.425256 
L 346.386892 78.777793 
L 346.413557 78.697852 
L 346.706867 76.904899 
L 346.813525 76.71761 
L 346.866854 77.021384 
L 346.893518 76.891195 
L 347.160164 70.089393 
L 347.37348 66.839237 
L 347.400144 66.846089 
L 347.506802 68.755527 
L 347.640125 74.234884 
L 348.120087 105.601285 
L 348.173416 104.53465 
L 348.306738 94.594609 
L 348.946687 26.128923 
L 349.000016 24.395354 
L 349.026681 25.19476 
L 349.746623 83.941955 
L 349.933275 89.412175 
L 350.013268 88.720118 
L 350.253249 83.889422 
L 351.159843 34.883559 
L 351.186507 34.618613 
L 351.239836 35.036588 
L 351.399824 40.844843 
L 351.586475 58.498008 
L 352.013108 98.826892 
L 352.039772 98.895412 
L 352.093101 98.845164 
L 352.14643 98.187367 
L 352.253089 91.205128 
L 352.893037 50.976741 
L 353.159682 53.413787 
L 353.399663 52.166714 
L 353.452992 51.586574 
L 353.532986 51.737319 
L 353.639644 52.525304 
L 353.879625 64.680842 
L 354.359586 92.230651 
L 354.43958 93.119134 
L 354.466244 92.897584 
L 354.572903 89.149513 
L 354.812883 72.343718 
L 355.239516 44.343956 
L 355.292845 43.603935 
L 355.346174 44.037898 
L 355.532826 48.731553 
L 356.306097 83.964795 
L 356.332761 84.10412 
L 356.38609 83.971647 
L 356.626071 80.241848 
L 357.026039 74.04531 
L 357.186026 76.365871 
L 357.372678 84.892106 
L 357.719317 101.078932 
L 357.79931 99.007329 
L 357.985962 82.409379 
L 358.545917 24.043616 
L 358.599246 24.728821 
L 358.705904 29.395067 
L 359.399182 85.307797 
L 359.50584 84.821301 
L 359.985802 78.949094 
L 360.252447 68.147979 
L 360.465763 55.435142 
L 360.892396 37.850497 
L 360.91906 37.777408 
L 360.945725 37.804817 
L 361.025718 39.045038 
L 361.132377 43.939686 
L 361.425686 71.286218 
L 361.745661 93.884279 
L 361.825654 95.421423 
L 361.878983 94.752206 
L 362.065635 86.477213 
L 362.545597 55.647555 
L 362.598926 55.236432 
L 362.652255 55.617863 
L 362.892235 58.073181 
L 362.998894 57.531869 
L 363.372197 50.266412 
L 363.452191 51.020137 
L 363.638842 58.904563 
L 364.225462 91.50205 
L 364.252126 91.410689 
L 364.33212 89.923794 
L 364.465443 83.051188 
L 365.025398 42.601252 
L 365.105391 43.551403 
L 365.238714 48.6676 
L 365.851998 75.685234 
L 366.091979 78.327841 
L 366.118643 78.416918 
L 366.171972 78.36667 
L 366.385289 77.510164 
L 366.411953 77.256638 
L 366.465282 77.473619 
L 366.811921 82.71087 
L 367.398541 101.394126 
L 367.478534 100.569596 
L 367.611857 91.097779 
L 367.931831 51.001865 
L 368.251806 20.156219 
L 368.27847 19.861581 
L 368.305135 20.361781 
L 368.491786 29.687421 
L 369.238393 89.359642 
L 369.265058 89.110684 
L 369.505039 84.339374 
L 370.331639 54.019051 
L 370.704942 40.899659 
L 370.784936 40.406312 
L 370.8116 40.625577 
L 370.944923 43.222504 
L 371.078246 49.999182 
L 371.718194 92.356272 
L 371.744859 92.523005 
L 371.798188 92.205527 
L 371.958175 87.386252 
L 372.704782 54.016767 
L 372.81144 53.374959 
L 372.864769 53.450331 
L 373.051421 53.89343 
L 373.078085 53.827194 
L 373.158079 53.48916 
L 373.211408 53.644473 
L 373.39806 55.668111 
L 373.611376 63.061474 
L 374.091337 83.692997 
L 374.118002 83.937387 
L 374.144667 83.711269 
L 374.331318 77.048792 
L 374.891273 55.13822 
L 374.917938 55.131368 
L 374.997931 56.015282 
L 375.264577 64.17379 
L 375.504557 69.463573 
L 375.63788 70.363475 
L 375.691209 70.288103 
L 375.771203 69.710246 
L 375.851196 69.842719 
L 375.93119 70.061985 
L 376.064513 72.188405 
L 376.464481 84.343942 
L 377.184423 104.657986 
L 377.291081 99.07585 
L 377.611055 65.651549 
L 378.011023 16.965448 
L 378.091017 13.386394 
L 378.144346 13.98709 
L 378.304333 24.532395 
L 379.05094 89.667985 
L 379.104269 90.581591 
L 379.157598 90.163616 
L 379.904205 71.370727 
L 380.250844 55.875957 
L 380.650812 38.930837 
L 380.75747 39.252883 
L 380.864128 43.718136 
L 381.264096 69.614318 
L 381.610735 88.318131 
L 381.664064 88.763514 
L 381.690728 88.537396 
L 381.850715 85.303229 
L 382.437335 62.312316 
L 382.730645 60.099104 
L 382.917296 59.448159 
L 382.943961 59.621744 
L 383.157277 60.599304 
L 383.237271 60.206453 
L 383.2906 60.293245 
L 383.58391 61.41013 
L 383.610574 61.362165 
L 383.637239 61.371301 
L 383.743897 62.485901 
L 383.930549 67.111035 
L 384.357181 78.745817 
L 384.41051 78.638468 
L 384.543833 76.454948 
L 385.023794 66.373298 
L 385.050459 66.320766 
L 385.077123 66.33447 
L 385.130452 66.759297 
L 385.183781 66.569723 
L 385.317104 66.005571 
L 385.610414 61.971998 
L 385.82373 60.195033 
L 385.850395 60.263553 
L 385.930388 61.172592 
L 386.143704 68.25076 
L 386.730324 88.777218 
L 386.756989 88.820614 
L 386.783653 88.742958 
L 386.916976 87.877315 
L 387.396937 81.767571 
L 387.450266 81.93202 
L 387.53026 82.24493 
L 387.583589 82.190114 
L 387.716912 85.17304 
L 387.743576 84.558639 
L 388.223538 52.797102 
L 388.570177 29.618901 
L 388.596841 29.290002 
L 388.65017 29.991195 
L 388.730164 33.163695 
L 389.023473 54.679132 
L 389.396777 87.457056 
L 389.47677 89.905522 
L 389.5301 89.293406 
L 389.850074 77.110461 
L 390.143384 60.320654 
L 390.170048 60.43257 
L 390.223377 60.309233 
L 390.250042 60.414298 
L 390.65001 63.886004 
L 390.676674 63.748963 
L 391.209965 50.574754 
L 391.263294 51.728183 
L 391.689926 63.493153 
L 392.009901 75.621282 
L 392.089894 75.264975 
L 392.116559 75.644122 
L 392.196552 76.722178 
L 392.249881 76.327043 
L 392.783172 68.198227 
L 392.809837 68.223351 
L 392.916495 68.412925 
L 392.943159 68.291872 
L 393.129811 66.581143 
L 393.47645 57.899596 
L 393.503114 57.977252 
L 393.529779 58.068613 
L 393.663101 57.022533 
L 393.689766 57.342296 
L 393.929747 64.909243 
L 394.196392 70.687806 
L 394.516366 75.557329 
L 394.676354 75.975304 
L 394.703018 75.863387 
L 395.156315 69.214615 
L 395.42296 66.288789 
L 395.609612 65.706365 
L 395.902922 63.808347 
L 395.929586 63.780939 
L 395.956251 63.892856 
L 396.169567 65.445987 
L 396.356219 68.25076 
L 396.5962 72.122168 
L 396.969503 74.808172 
L 397.342806 79.668559 
L 397.369471 79.75992 
L 397.396135 79.71424 
L 397.636116 75.568749 
L 397.876097 72.238653 
L 397.902762 72.348286 
L 397.982755 73.252756 
L 398.302729 77.887026 
L 398.382723 76.834095 
L 399.262652 54.13782 
L 399.395975 52.714878 
L 399.42264 52.728582 
L 399.582627 54.144672 
L 399.66262 55.725212 
L 399.982595 67.777968 
L 400.089253 67.574691 
L 400.115917 67.387401 
L 400.142582 67.467342 
L 400.329234 70.135073 
L 400.382563 70.000316 
L 400.462556 69.232887 
L 400.675872 64.96406 
L 401.049176 56.609126 
L 401.102505 56.04269 
L 401.155834 56.62283 
L 401.449144 61.369017 
L 401.502473 61.2 
L 401.609131 61.209136 
L 401.66246 60.987586 
L 401.715789 61.083515 
L 401.795783 62.230092 
L 402.382402 75.198739 
L 402.48906 72.517303 
L 402.835699 62.867332 
L 402.969022 61.195432 
L 403.022351 61.293645 
L 403.07568 61.309633 
L 403.129009 61.570011 
L 403.209003 61.554023 
L 403.235667 61.430686 
L 403.288996 61.681928 
L 403.422319 63.972796 
L 403.875616 72.049079 
L 403.928945 72.15186 
L 403.95561 72.065068 
L 404.035603 71.256526 
L 404.355577 66.06724 
L 404.435571 66.256813 
L 404.808874 70.395451 
L 405.128849 74.648291 
L 405.208842 74.961201 
L 405.262171 74.878976 
L 405.342165 74.264576 
L 405.555481 68.56367 
L 405.848791 61.129195 
L 405.875456 61.204568 
L 406.062107 64.701398 
L 406.408746 70.436564 
L 406.568733 71.07152 
L 406.78205 69.91124 
L 406.835379 70.041429 
L 406.915372 70.176186 
L 406.942037 70.055133 
L 407.208682 68.454037 
L 407.342005 67.567839 
L 407.395334 67.666051 
L 407.448663 67.841921 
L 407.60865 70.073405 
L 407.848631 73.133987 
L 407.928624 72.846201 
L 408.301928 69.538945 
L 408.381921 69.685122 
L 408.648567 70.865959 
L 408.675231 70.776882 
L 408.755225 70.274398 
L 409.048534 67.115603 
L 409.261851 67.835069 
L 409.741812 73.896849 
L 409.795141 73.668447 
L 410.115116 71.578572 
L 410.355096 68.163967 
L 410.808393 63.456609 
L 410.968381 62.766835 
L 411.235026 60.380038 
L 411.341684 59.756501 
L 411.395013 59.825022 
L 411.448342 60.163056 
L 411.608329 62.284908 
L 412.008297 68.481445 
L 412.061626 68.289588 
L 412.194949 66.773001 
L 412.514923 62.033666 
L 412.648246 61.563159 
L 412.701575 61.615691 
L 412.754904 61.999406 
L 413.208201 67.542714 
L 413.288195 67.391969 
L 413.794821 62.940421 
L 413.821485 62.88332 
L 413.84815 63.040917 
L 414.514763 72.090192 
L 414.568092 71.891482 
L 414.67475 70.557617 
L 415.048053 67.172704 
L 415.181376 66.679356 
L 415.234705 66.752445 
L 415.341363 66.752445 
L 415.927983 70.518788 
L 415.954647 70.521072 
L 416.007976 70.742622 
L 416.034641 70.619285 
L 416.167964 69.200911 
L 416.38128 67.076775 
L 416.407944 67.154432 
L 416.434609 67.136159 
L 416.461273 67.197828 
L 416.91457 70.78145 
L 416.967899 70.605581 
L 417.261209 68.351256 
L 417.50119 65.738341 
L 417.527855 65.758897 
L 417.581184 65.717785 
L 417.607848 65.806862 
L 417.687842 66.14718 
L 418.141139 70.669533 
L 418.247797 70.276683 
L 418.514442 66.393854 
L 418.674429 64.71967 
L 418.701094 64.728806 
L 418.754423 64.989184 
L 418.941075 67.942417 
L 419.287713 73.435478 
L 419.314378 73.350969 
L 420.167643 63.198515 
L 420.194307 63.330988 
L 420.32763 64.932083 
L 420.754263 73.252756 
L 420.834256 72.770829 
L 420.967579 69.093562 
L 421.260889 61.572295 
L 421.314218 61.732176 
L 421.44754 64.354227 
L 421.874173 73.181952 
L 421.927502 73.195656 
L 421.954166 73.140839 
L 422.167483 69.93408 
L 422.56745 63.079746 
L 422.700773 62.184411 
L 422.754102 62.332872 
L 422.914089 63.71927 
L 423.314057 67.899021 
L 423.420715 68.454037 
L 423.714025 69.605182 
L 423.794019 69.518389 
L 423.980671 68.524842 
L 424.193987 65.56704 
L 424.433967 62.753131 
L 424.487297 62.705167 
L 424.887264 64.751646 
L 424.940594 64.886403 
L 424.967258 64.710534 
L 425.180574 63.573093 
L 425.233903 63.260183 
L 425.287232 63.369816 
L 425.44722 64.287991 
L 425.98051 69.602898 
L 426.193826 71.500915 
L 426.220491 71.462087 
L 426.27382 71.375295 
L 426.433807 69.139242 
L 426.780446 65.918779 
L 426.807111 65.90279 
L 426.833775 65.985015 
L 426.940433 66.665652 
L 427.420395 72.110748 
L 427.473724 71.918891 
L 427.660375 68.924545 
L 428.087008 63.251047 
L 428.113672 63.191663 
L 428.140337 63.248763 
L 428.51364 67.640927 
L 428.860279 72.377978 
L 428.886944 72.282049 
L 429.10026 69.906672 
L 429.420234 66.099216 
L 429.473563 66.222553 
L 429.633551 66.572007 
L 429.660215 66.62454 
L 430.033519 72.037659 
L 430.113512 70.99158 
L 430.326828 68.611634 
L 430.726796 62.625226 
L 430.80679 62.997521 
L 431.34008 68.85374 
L 431.580061 71.208561 
L 431.766713 71.231401 
L 431.820042 70.925343 
L 432.433326 63.922548 
L 432.459991 63.879152 
L 432.486655 63.901992 
L 432.673307 65.583028 
L 432.939952 69.952352 
L 432.966617 69.920376 
L 433.099939 68.858308 
L 433.313256 66.309345 
L 433.393249 66.583427 
L 433.63323 70.308659 
L 433.899875 73.74382 
L 433.953204 73.483442 
L 434.193185 68.85374 
L 434.486495 65.320366 
L 434.539824 65.28839 
L 434.566488 65.384319 
L 434.806469 66.492067 
L 434.833134 66.44867 
L 434.966456 65.820566 
L 435.099779 64.804178 
L 435.153108 64.852143 
L 435.33976 65.809146 
L 435.419753 65.548768 
L 435.57974 64.721954 
L 435.686399 64.849859 
L 435.926379 66.108352 
L 436.086366 68.387801 
L 436.299683 69.733087 
L 436.326347 69.648578 
L 436.45967 68.951953 
L 436.566328 68.378665 
L 436.619657 68.492865 
L 436.672986 68.527126 
L 436.699651 68.502002 
L 436.939631 67.012823 
L 437.206277 65.414011 
L 437.28627 65.183325 
L 437.312935 65.222153 
L 437.686238 67.213816 
L 437.792896 67.405673 
L 437.846225 67.296041 
L 438.006213 66.311629 
L 438.219529 65.366047 
L 438.246193 65.347774 
L 438.272858 65.411727 
L 438.432845 65.989583 
L 438.512839 65.957607 
L 438.539503 65.921063 
L 438.592832 66.035263 
L 438.672826 66.156316 
L 438.832813 66.99455 
L 438.886142 66.887202 
L 438.939471 66.709048 
L 438.966136 66.820965 
L 439.259445 68.337552 
L 439.446097 68.931397 
L 439.472762 68.897136 
L 439.686078 68.31928 
L 439.792736 68.013222 
L 440.032717 66.786705 
L 440.246033 65.78859 
L 440.326027 65.697229 
L 440.352691 65.758897 
L 440.512678 66.409842 
L 440.779324 68.625338 
L 440.805988 68.595646 
L 440.859317 68.515706 
L 441.125962 66.567439 
L 441.179291 66.820965 
L 441.28595 66.887202 
L 441.392608 67.930997 
L 441.712582 71.423259 
L 441.739247 71.427827 
L 441.925898 69.687406 
L 442.299202 65.973595 
L 442.565847 64.301695 
L 442.645841 64.648865 
L 442.912486 67.563271 
L 443.179131 70.562185 
L 443.259125 70.495948 
L 443.445776 68.844604 
L 443.712422 66.606268 
L 443.845744 66.41441 
L 443.952402 66.786705 
L 444.059061 67.264064 
L 444.11239 67.190976 
L 444.299041 67.042515 
L 444.35237 67.2161 
L 444.432364 67.583827 
L 444.512358 67.816796 
L 444.539022 67.755128 
L 444.592351 67.634075 
L 444.619016 67.766548 
L 444.64568 67.857909 
L 444.699009 67.69346 
L 444.752338 67.645495 
L 445.258964 65.126225 
L 445.285629 65.251846 
L 445.498945 65.863962 
L 445.632268 66.133476 
L 445.658932 66.099216 
L 445.685597 66.039831 
L 445.712261 66.165452 
L 445.738926 66.295641 
L 445.792255 66.122056 
L 445.818919 66.12434 
L 446.138894 67.560987 
L 446.165558 67.556419 
L 446.245552 67.314313 
L 446.592191 64.970912 
L 446.64552 65.096533 
L 446.858836 67.391969 
L 447.072152 68.956521 
L 447.098817 68.993065 
L 447.152146 68.91084 
L 447.285469 68.161683 
L 447.525449 66.457807 
L 447.605443 66.633676 
L 447.685436 66.729605 
L 447.712101 66.626824 
L 447.952082 65.841122 
L 448.165398 64.450156 
L 448.35205 65.911927 
L 448.672024 70.489096 
L 448.725353 70.404587 
L 448.965334 67.700312 
L 449.17865 66.462375 
L 449.258644 66.389286 
L 449.285308 66.439534 
L 449.525289 67.211532 
L 449.551953 67.245792 
L 449.578618 67.159 
L 449.685276 67.012823 
L 449.711941 67.079059 
L 449.898592 68.020074 
L 450.111909 69.130106 
L 450.218567 68.805776 
L 450.511876 66.432682 
L 450.618535 66.576575 
L 450.725193 67.446786 
L 450.991838 70.98016 
L 451.045167 70.774598 
L 451.285148 69.810743 
L 451.365141 69.301407 
L 451.445135 69.424744 
L 451.685116 71.142325 
L 451.71178 71.08294 
L 451.845103 70.066553 
L 452.165077 65.461975 
L 452.245071 65.82285 
L 452.351729 67.551851 
L 452.645039 72.019387 
L 452.671703 72.001115 
L 452.83169 70.760894 
L 453.178329 67.650063 
L 453.364981 66.823249 
L 453.498304 66.316197 
L 453.524968 66.384718 
L 453.791614 67.572407 
L 454.00493 68.732687 
L 454.031594 68.645895 
L 454.164917 67.597531 
L 454.458227 64.020761 
L 454.484891 64.187494 
L 454.671543 67.074491 
L 454.964853 71.880062 
L 454.991517 71.944015 
L 455.018182 71.905186 
L 455.178169 70.089393 
L 455.471479 66.530895 
L 455.524808 66.574291 
L 455.551472 66.519475 
L 455.578137 66.583427 
L 455.818118 67.129307 
L 456.084763 66.199713 
L 456.138092 66.336754 
L 456.24475 67.097331 
L 456.53806 69.116402 
L 456.564724 69.13239 
L 456.724712 67.714016 
L 456.991357 65.651549 
L 457.018021 65.665253 
L 457.098015 66.028411 
L 457.471318 68.636758 
L 457.524648 68.321564 
L 457.65797 67.401105 
L 457.871286 66.149464 
L 457.897951 66.167736 
L 457.924615 66.1015 
L 457.95128 66.126624 
L 458.084603 66.677072 
L 458.137932 66.656516 
L 458.297919 66.848373 
L 458.671222 65.569324 
L 458.724551 65.708649 
L 458.857874 66.40299 
L 458.991197 67.195544 
L 459.017861 67.154432 
L 459.231177 65.959891 
L 459.524487 63.436052 
L 459.631145 64.187494 
L 459.95112 67.403389 
L 460.031113 67.031095 
L 460.324423 64.99832 
L 460.404417 64.813314 
L 460.431081 64.948071 
L 460.644397 67.668335 
L 460.857714 69.97976 
L 460.884378 69.938648 
L 460.964372 69.312827 
L 461.311011 65.445987 
L 461.36434 65.576176 
L 461.550991 67.314313 
L 461.844301 69.518389 
L 461.950959 69.015905 
L 462.137611 67.851057 
L 462.217605 67.97211 
L 462.324263 68.08631 
L 463.044205 72.204393 
L 463.124199 72.1747 
L 463.257521 71.039544 
L 463.737483 66.366446 
L 463.764147 66.510339 
L 463.89747 67.17042 
L 464.297438 70.119085 
L 464.377431 70.098529 
L 464.510754 69.803891 
L 464.537419 69.897536 
L 464.670741 70.441132 
L 464.72407 70.315511 
L 465.257361 67.659199 
L 465.417348 67.730004 
L 465.497342 68.470025 
L 465.817316 71.430111 
L 465.897309 71.286218 
L 466.030632 70.14421 
L 466.403936 64.980048 
L 466.4306 65.094249 
L 466.670581 67.451354 
L 466.883897 70.294955 
L 466.937226 70.228718 
L 467.097213 69.09813 
L 467.523846 64.055021 
L 467.55051 64.086997 
L 467.577175 64.048169 
L 467.603839 64.125825 
L 468.297117 70.089393 
L 468.377111 70.306375 
L 468.43044 70.180754 
L 468.510433 70.048281 
L 468.803743 66.307061 
L 468.96373 64.623741 
L 469.017059 64.683126 
L 469.123717 65.208449 
L 469.497021 69.614318 
L 469.577014 69.05245 
L 469.710337 66.96029 
L 469.923653 64.630593 
L 469.976982 64.662569 
L 470.08364 65.706365 
L 470.37695 68.995349 
L 470.403615 68.988497 
L 470.483608 68.915409 
L 470.696925 66.795841 
L 470.856912 65.585312 
L 470.910241 65.756613 
L 471.363538 69.073006 
L 471.416867 68.828616 
L 471.79017 66.039831 
L 471.843499 66.163168 
L 472.163474 67.611235 
L 472.536777 70.509652 
L 472.590106 70.333783 
L 472.723429 69.680554 
L 473.123397 65.843406 
L 473.150061 66.016991 
L 473.550029 68.913125 
L 473.736681 69.248875 
L 473.843339 69.379064 
L 473.870004 69.312827 
L 474.483288 65.941619 
L 474.509952 66.07866 
L 474.936585 70.632989 
L 474.989914 70.338351 
L 475.123236 68.264464 
L 475.443211 64.276571 
L 475.469875 64.235458 
L 475.49654 64.324535 
L 475.603198 65.859394 
L 475.896508 69.908956 
L 475.923172 69.977476 
L 475.949837 69.892968 
L 476.243147 68.645895 
L 476.269811 68.664167 
L 476.403134 68.867444 
L 476.429798 68.851456 
L 476.563121 68.205079 
L 476.883095 65.117089 
L 476.963089 64.868131 
L 476.989753 64.932083 
L 477.176405 66.969426 
L 477.44305 69.705678 
L 477.469715 69.653146 
L 477.523044 69.447584 
L 477.923012 64.948071 
L 477.976341 65.155917 
L 478.296315 67.149864 
L 478.349644 67.017391 
L 478.509632 66.106068 
L 478.669619 65.706365 
L 478.802941 66.444102 
L 479.122916 70.253842 
L 479.202909 69.703394 
L 479.416226 66.480647 
L 479.602877 64.703682 
L 479.656206 64.797326 
L 479.762864 65.854826 
L 480.02951 68.641327 
L 480.056174 68.762379 
L 480.109503 68.63219 
L 480.162832 68.408357 
L 480.322819 67.419378 
L 480.349484 67.43765 
L 480.402813 67.481046 
L 480.456142 67.442218 
L 480.536136 67.341721 
L 480.5628 67.458206 
L 480.722787 68.29644 
L 480.776116 68.150263 
L 481.176084 66.074092 
L 481.202749 66.140328 
L 481.469394 68.186807 
L 481.602717 69.175786 
L 481.629381 69.173502 
L 481.789369 68.241624 
L 482.029349 66.720468 
L 482.056014 66.770717 
L 482.162672 67.465058 
L 482.589304 69.527525 
L 482.989272 66.814113 
L 483.09593 67.056219 
L 483.229253 67.378265 
L 483.282582 67.307461 
L 483.469234 67.298325 
L 483.602556 67.26178 
L 483.709215 67.47191 
L 483.949195 68.084026 
L 484.109183 68.31928 
L 484.402492 69.308259 
L 484.429157 69.383632 
L 484.455821 69.324248 
L 484.722467 67.079059 
L 484.935783 65.774886 
L 484.962447 65.749761 
L 484.989112 65.831986 
L 485.202428 68.05205 
L 485.38908 69.719382 
L 485.415744 69.710246 
L 485.549067 68.862876 
L 485.815712 66.61312 
L 485.842377 66.549167 
L 485.869041 66.629108 
L 486.109022 68.001802 
L 486.21568 67.883033 
L 486.269009 67.985814 
L 486.375667 68.218783 
L 486.402332 68.125139 
L 486.535655 67.793956 
L 486.562319 67.853341 
L 486.695642 68.543114 
L 486.962287 70.087109 
L 487.09561 68.625338 
L 487.548907 63.630194 
L 487.735558 64.468428 
L 488.322178 69.589193 
L 488.375507 69.641726 
L 488.402172 69.614318 
L 488.50883 68.511138 
L 488.855469 64.938935 
L 488.882133 64.893255 
L 488.908798 64.936651 
L 489.095449 67.101899 
L 489.362095 70.237854 
L 489.415424 70.274398 
L 489.522082 69.294555 
L 489.92205 64.909243 
L 489.975379 65.178757 
L 490.055372 65.546484 
L 490.268689 67.346289 
L 490.428676 68.600214 
L 490.482005 68.533978 
L 490.561998 68.109151 
L 490.881973 67.051651 
L 491.255276 67.544998 
L 491.281941 67.513022 
L 491.601915 66.576575 
L 491.681909 66.572007 
L 491.735238 66.473795 
L 491.761902 66.553735 
L 491.86856 66.939734 
L 492.268528 69.17807 
L 492.295193 69.152946 
L 492.321857 69.162082 
L 492.881812 67.26178 
L 492.935142 67.309745 
L 493.068464 67.723152 
L 493.121793 67.707164 
L 493.148458 67.675187 
L 493.175122 67.720868 
L 493.521761 69.054734 
L 493.601755 69.127822 
L 493.628419 69.168934 
L 493.655084 69.041029 
L 493.761742 68.426629 
L 494.108381 66.86893 
L 494.215039 67.005971 
L 494.508349 68.127423 
L 494.695 67.787104 
L 494.748329 67.933281 
L 494.801659 68.045198 
L 494.934981 68.474593 
L 494.961646 68.399221 
L 495.414943 66.281937 
L 495.494936 66.236257 
L 495.521601 66.313913 
L 495.628259 66.820965 
L 495.708252 66.738741 
L 495.788246 67.202396 
L 496.028227 67.917293 
L 496.348201 67.218384 
L 496.374866 67.321165 
L 496.641511 68.846888 
L 496.801498 69.05245 
L 496.908156 68.629906 
L 497.094808 68.033778 
L 497.334789 67.736856 
L 497.388118 67.650063 
L 497.921408 65.61272 
L 497.974737 65.653833 
L 498.081396 66.524043 
L 498.374705 69.118686 
L 498.428034 69.07529 
L 498.93466 66.393854 
L 498.961325 66.549167 
L 499.147977 67.156716 
L 499.441286 67.309745 
L 499.654603 66.396138 
L 499.681267 66.466943 
L 500.161229 68.131991 
L 500.294551 67.595247 
L 500.534532 65.005172 
L 500.64119 64.472996 
L 500.667855 64.495836 
L 500.774513 64.767634 
L 500.854507 65.398023 
L 501.254474 69.580057 
L 501.334468 69.41104 
L 501.681107 65.923347 
L 501.894423 64.516392 
L 501.947752 64.653433 
L 502.107739 65.713217 
L 502.374385 68.444901 
L 502.427714 68.698427 
L 502.481043 68.57509 
L 502.694359 67.551851 
L 503.040998 65.742909 
L 503.120991 65.841122 
L 503.280979 66.736457 
L 503.627617 68.846888 
L 503.707611 68.680155 
L 503.787605 68.337552 
L 503.920927 67.243508 
L 504.160908 65.053136 
L 504.240902 64.797326 
L 504.267566 64.852143 
L 504.774192 67.364561 
L 504.854186 67.620371 
L 505.120831 68.744107 
L 505.334147 67.791672 
L 505.707451 64.605469 
L 505.734115 64.74251 
L 505.947431 67.624939 
L 506.107419 69.175786 
L 506.134083 69.173502 
L 506.29407 67.444502 
L 506.534051 65.304378 
L 506.640709 65.752045 
L 506.854025 67.021959 
L 506.907355 66.985414 
L 506.960684 66.752445 
L 507.094006 64.906959 
L 507.280658 62.725723 
L 507.307322 62.730291 
L 507.360651 63.075178 
L 507.547303 68.065754 
L 507.813948 73.273312 
L 507.867278 73.088307 
L 507.973936 71.126337 
L 508.320575 64.107553 
L 508.347239 64.061873 
L 508.373904 64.180642 
L 508.533891 66.544599 
L 508.800536 69.593761 
L 508.960523 70.251558 
L 508.987188 70.203594 
L 509.467149 67.780252 
L 509.70713 65.84569 
L 509.787124 66.165452 
L 510.213756 69.305975 
L 510.29375 69.235171 
L 510.347079 69.203195 
L 510.960363 67.364561 
L 511.067021 67.202396 
L 511.200344 67.387401 
L 511.253673 67.508454 
L 511.600312 69.42246 
L 511.680305 69.37678 
L 511.920286 68.328416 
L 512.000279 68.385517 
L 512.106938 68.344404 
L 512.24026 68.993065 
L 512.266925 68.947385 
L 512.400247 68.428913 
L 512.53357 67.179556 
L 512.746886 65.409443 
L 512.853544 66.281937 
L 513.200183 69.299123 
L 513.306841 68.995349 
L 513.706809 64.982332 
L 513.760138 65.199313 
L 513.893461 66.016991 
L 514.133442 67.908157 
L 514.2401 67.668335 
L 514.453416 66.293357 
L 514.613403 66.373298 
L 514.960042 66.951154 
L 514.986707 66.830101 
L 515.226687 65.77717 
L 515.280016 65.580744 
L 515.333346 65.704081 
L 515.493333 67.270916 
L 515.759978 69.726234 
L 515.813307 69.856423 
L 515.866636 69.696542 
L 515.973294 68.490581 
L 516.293269 64.53238 
L 516.346598 64.571209 
L 516.399927 64.836155 
L 516.77323 69.141526 
L 516.826559 68.954237 
L 517.119869 66.263665 
L 517.253192 65.28839 
L 517.306521 65.318082 
L 517.333185 65.308946 
L 518.266444 70.21273 
L 518.346437 69.810743 
L 518.559754 67.222952 
L 518.746405 65.219869 
L 518.77307 65.27697 
L 518.826399 65.452839 
L 519.093044 68.746391 
L 519.199702 69.541229 
L 519.253031 69.497833 
L 519.573006 69.036461 
L 519.59967 69.088994 
L 519.652999 69.235171 
L 519.732993 69.15523 
L 520.212954 66.930598 
L 520.559593 68.561386 
L 520.666251 68.766947 
L 520.692916 68.750959 
L 520.826238 68.488297 
L 521.359529 66.855225 
L 521.386194 66.946586 
L 521.786161 69.8884 
L 521.89282 70.128221 
L 521.919484 70.075689 
L 522.346117 66.355026 
L 522.42611 66.430398 
L 522.666091 67.698028 
L 522.852743 68.700711 
L 522.879407 68.643611 
L 523.01273 68.200511 
L 523.279375 67.079059 
L 523.519356 67.524442 
L 523.759337 68.428913 
L 523.786001 68.440333 
L 524.105975 67.289189 
L 524.159305 67.236656 
L 524.185969 67.344005 
L 524.265963 67.430798 
L 524.292627 67.382833 
L 524.345956 67.453638 
L 524.665931 69.059302 
L 524.745924 68.760095 
L 525.25255 65.174189 
L 525.305879 65.402591 
L 525.519195 66.17002 
L 525.599189 66.471511 
L 525.945828 68.179955 
L 525.972492 68.097731 
L 526.13248 67.835069 
L 526.505783 66.69306 
L 526.532448 66.738741 
L 526.852422 66.364162 
L 526.879086 66.446386 
L 527.199061 67.186408 
L 527.332383 67.341721 
L 527.439042 67.2732 
L 527.465706 67.316597 
L 527.625693 67.718584 
L 527.652358 67.695744 
L 527.705687 67.595247 
L 527.759016 67.675187 
L 527.839009 67.691176 
L 528.292306 66.035263 
L 528.318971 66.115204 
L 528.425629 66.597132 
L 528.585616 67.606667 
L 528.772268 68.579658 
L 528.825597 68.533978 
L 528.932255 68.195943 
L 529.172236 66.530895 
L 529.385552 66.526327 
L 529.49221 66.989982 
L 529.758856 68.737255 
L 529.865514 68.954237 
L 529.892178 68.903988 
L 529.945507 68.828616 
L 529.998836 68.903988 
L 530.185488 69.813027 
L 530.265482 69.66685 
L 530.452133 68.972509 
L 530.585456 68.129707 
L 530.852101 67.012823 
L 531.145411 68.584226 
L 531.49205 69.822163 
L 531.518714 69.806175 
L 531.838689 69.07529 
L 532.07867 68.403789 
L 532.398644 67.997234 
L 532.425308 68.04063 
L 532.771947 68.650463 
L 532.798612 68.591078 
L 532.958599 68.173103 
L 533.305238 66.779853 
L 533.385231 66.656516 
L 533.411896 66.702196 
L 533.598548 67.942417 
L 533.891857 69.783335 
L 534.02518 69.459005 
L 534.211832 68.860592 
L 534.345154 68.065754 
L 534.6118 66.884918 
L 534.718458 66.713616 
L 534.771787 66.820965 
L 534.90511 67.138444 
L 535.011768 67.748276 
L 535.251748 69.12097 
L 535.278413 69.050166 
L 535.491729 67.453638 
L 535.705045 65.818282 
L 535.785039 65.690377 
L 535.811704 65.742909 
L 536.265001 67.2732 
L 536.424988 67.101899 
L 536.638304 68.223351 
L 536.878285 69.251159 
L 536.931614 69.182638 
L 536.984943 68.881148 
L 537.411575 65.028012 
L 537.491569 65.546484 
L 537.838208 67.951553 
L 537.891537 67.901305 
L 537.97153 68.024642 
L 537.998195 67.944701 
L 538.131518 67.848773 
L 538.291505 67.857909 
L 538.371498 67.748276 
L 538.504821 67.490182 
L 538.798131 65.181041 
L 538.878124 65.29981 
L 539.064776 67.213816 
L 539.331421 69.687406 
L 539.411415 69.755927 
L 539.491408 69.232887 
L 539.838047 66.551451 
L 539.864712 66.567439 
L 539.97137 66.519475 
L 540.131357 66.348174 
L 540.158022 66.384718 
L 540.211351 66.325334 
L 540.344673 66.215701 
L 540.424667 66.62454 
L 540.824635 69.943216 
L 540.851299 69.895252 
L 540.957958 69.326532 
L 541.304596 67.291473 
L 541.331261 67.307461 
L 541.571242 67.828217 
L 541.597906 67.73914 
L 541.837887 66.955722 
L 541.944545 66.565155 
L 541.997874 66.674788 
L 542.077868 66.955722 
L 542.21119 67.49475 
L 542.344513 68.202795 
L 542.371178 68.088594 
L 542.771145 66.896338 
L 542.851139 66.958006 
L 543.011126 67.919577 
L 543.277772 69.60975 
L 543.357765 69.867844 
L 543.411094 69.785619 
L 543.544417 69.015905 
L 543.997714 65.905074 
L 544.051043 66.001003 
L 544.104372 66.256813 
L 544.584333 70.324647 
L 544.664327 69.808459 
L 544.984301 67.876181 
L 545.03763 67.928713 
L 545.197618 67.465058 
L 545.277611 67.49475 
L 545.517592 66.649664 
L 545.677579 65.966743 
L 545.730908 66.11292 
L 545.864231 66.921462 
L 546.21087 70.477676 
L 546.237534 70.463972 
L 546.370857 69.093562 
L 546.690831 65.361478 
L 546.74416 65.370615 
L 546.824154 65.90279 
L 547.33078 71.468939 
L 547.437438 70.827131 
L 548.077387 65.03258 
L 548.130716 65.176473 
L 548.317367 66.99455 
L 548.637342 70.121369 
L 548.717335 69.940932 
L 549.250626 67.988098 
L 549.357284 67.944701 
L 549.490607 67.736856 
L 549.517271 67.764264 
L 549.543936 67.695744 
L 549.703923 67.035663 
L 549.86391 66.672504 
L 549.943904 66.387002 
L 550.023897 66.444102 
L 550.237214 67.245792 
L 550.343872 67.056219 
L 550.477194 66.92603 
L 550.610517 66.932882 
L 550.797169 67.289189 
L 551.303795 67.245792 
L 551.623769 68.2736 
L 551.650434 68.23934 
L 551.837085 67.23894 
L 552.183724 63.968228 
L 552.237053 64.21947 
L 552.370376 65.649265 
L 552.610357 67.835069 
L 552.743679 67.195544 
L 553.010324 65.459691 
L 553.090318 65.790874 
L 553.250305 66.962574 
L 553.463621 68.246192 
L 553.516951 68.241624 
L 553.836925 66.615404 
L 553.916918 66.683924 
L 554.130235 67.25036 
L 554.183564 67.476478 
L 554.236893 67.401105 
L 554.316886 66.939734 
L 554.636861 65.391171 
L 554.663525 65.468827 
L 554.770183 66.069524 
L 555.250145 67.780252 
L 555.276809 67.771116 
L 555.330138 68.001802 
L 555.383468 67.816796 
L 555.410132 67.848773 
L 555.436797 67.771116 
L 555.51679 67.666051 
L 555.543455 67.675187 
L 555.596784 67.787104 
L 555.650113 67.768832 
L 555.943423 66.581143 
L 556.023416 66.68164 
L 556.290062 69.020473 
L 556.476713 70.139641 
L 556.556707 70.036861 
L 556.690029 69.196343 
L 557.063333 66.642812 
L 557.089997 66.64738 
L 557.22332 67.104183 
L 557.569959 68.851456 
L 557.703282 68.983929 
L 557.863269 69.516105 
L 557.889933 69.431596 
L 558.263237 68.764663 
L 558.609875 67.595247 
L 558.956514 67.666051 
L 559.089837 67.7734 
L 559.143166 67.798524 
L 559.276489 67.976678 
L 559.329818 67.901305 
L 559.489805 67.599815 
L 559.516469 67.638643 
L 559.596463 67.638643 
L 559.809779 68.428913 
L 560.103089 68.766947 
L 560.156418 69.070722 
L 560.236412 68.949669 
L 560.609715 67.757412 
L 560.689709 67.595247 
L 560.769702 67.75056 
L 560.956354 68.138843 
L 561.143006 68.721267 
L 561.16967 68.693859 
L 561.302993 67.917293 
L 561.676296 65.765749 
L 561.702961 65.733773 
L 561.729625 65.806862 
L 562.156258 68.266748 
L 562.262916 68.202795 
L 562.58289 68.07489 
L 562.689548 67.825933 
L 562.742877 67.985814 
L 562.982858 68.837752 
L 563.089516 68.739539 
L 563.302833 67.380549 
L 563.596142 65.843406 
L 563.649471 65.841122 
L 564.342749 68.417493 
L 564.742717 66.782137 
L 564.87604 66.172304 
L 564.929369 66.270517 
L 565.329337 67.42623 
L 565.542653 66.622256 
L 565.755969 65.729205 
L 565.862627 65.987299 
L 566.182602 67.544998 
L 566.235931 67.444502 
L 566.58257 66.030695 
L 566.662563 66.13576 
L 566.742557 66.373298 
L 567.11586 68.924545 
L 567.169189 68.869728 
L 567.355841 67.636359 
L 567.649151 65.537348 
L 567.755809 65.324934 
L 567.782473 65.33407 
L 567.99579 65.996435 
L 568.422422 68.465457 
L 568.449087 68.524842 
L 568.52908 68.476877 
L 568.689067 67.755128 
L 569.035706 64.701398 
L 569.142364 65.039432 
L 569.515668 68.163967 
L 569.595661 68.129707 
L 569.675655 67.892169 
L 569.968965 66.629108 
L 570.075623 67.099615 
L 570.288939 68.022358 
L 570.315604 67.96069 
L 570.715571 65.738341 
L 570.768901 66.103784 
L 571.168868 69.589193 
L 571.248862 69.14381 
L 571.542172 67.574691 
L 571.568836 67.624939 
L 571.835482 68.718983 
L 571.915475 68.623054 
L 572.208785 67.800808 
L 572.315443 67.944701 
L 572.635418 69.918092 
L 572.662082 69.783335 
L 572.795405 69.006769 
L 573.115379 66.211133 
L 573.168708 66.514907 
L 573.328695 67.780252 
L 573.568676 69.315111 
L 573.595341 69.301407 
L 573.835321 67.992666 
L 573.915315 67.752844 
L 573.968644 67.928713 
L 574.235289 69.184923 
L 574.315283 68.858308 
L 574.688586 65.477963 
L 574.76858 65.939335 
L 575.008561 69.675986 
L 575.168548 70.783734 
L 575.275206 69.72395 
L 575.621845 65.064556 
L 575.648509 65.123941 
L 576.021813 67.305177 
L 576.128471 67.2732 
L 576.208464 67.097331 
L 576.261793 67.213816 
L 576.395116 67.837353 
L 576.581768 68.59793 
L 576.635097 68.50657 
L 576.768419 67.442218 
L 577.115058 63.251047 
L 577.195052 63.520561 
L 577.328375 65.466543 
L 577.621684 68.243908 
L 577.781672 67.48333 
L 578.021652 66.775285 
L 578.101646 66.695344 
L 578.234969 66.167736 
L 578.528278 64.276571 
L 578.608272 64.395339 
L 578.794924 66.17002 
L 579.114898 70.17847 
L 579.141563 70.128221 
L 579.221556 69.762779 
L 579.408208 66.967142 
L 579.648189 64.292559 
L 579.674853 64.322251 
L 579.781511 65.222153 
L 580.154815 68.883432 
L 580.234808 68.602498 
L 580.448124 67.910441 
L 580.608112 68.223351 
L 580.794763 68.821764 
L 581.061409 67.328017 
L 581.194731 66.535463 
L 581.24806 66.581143 
L 581.301389 66.686208 
L 581.621364 68.504286 
L 581.674693 68.460889 
L 581.701357 68.472309 
L 581.728022 68.378665 
L 582.021332 67.49475 
L 582.074661 67.544998 
L 582.394635 68.492865 
L 582.4213 68.442617 
L 582.474629 68.538546 
L 582.634616 68.664167 
L 582.687945 68.54083 
L 582.767938 68.602498 
L 582.874597 68.963373 
L 583.114577 69.97976 
L 583.194571 69.849571 
L 583.407887 67.953837 
L 583.621203 66.540031 
L 583.674532 66.768433 
L 584.0745 69.847287 
L 584.101165 69.790187 
L 584.234487 69.196343 
L 584.447804 68.205079 
L 584.607791 68.326132 
L 584.741114 68.559102 
L 584.794443 68.495149 
L 585.141081 67.451354 
L 585.194411 67.579259 
L 585.381062 68.045198 
L 585.541049 68.481445 
L 585.647708 68.396937 
L 585.994346 66.834669 
L 586.127669 66.405274 
L 586.154334 66.418978 
L 586.207663 66.503487 
L 586.90094 69.42246 
L 586.927605 69.4453 
L 586.954269 69.406472 
L 587.274244 68.360392 
L 587.567554 66.33447 
L 587.594218 66.286505 
L 587.647547 66.343606 
L 588.154173 67.748276 
L 588.180838 67.725436 
L 588.447483 67.519874 
L 588.794122 67.083627 
L 588.820786 67.003687 
L 588.874115 67.184124 
L 589.007438 67.503886 
L 589.327412 68.093163 
L 589.514064 67.730004 
L 589.754045 66.793557 
L 589.807374 66.750161 
L 589.860703 66.788989 
L 590.127348 67.106467 
L 590.234006 67.117887 
L 590.314 66.859793 
L 590.580645 65.930199 
L 590.713968 66.546883 
L 591.087271 69.283135 
L 591.247259 68.492865 
L 591.620562 65.937051 
L 591.647226 66.042115 
L 591.967201 67.307461 
L 592.073859 67.720868 
L 592.100523 67.707164 
L 592.31384 66.859793 
L 592.633814 65.023444 
L 592.660479 65.057704 
L 592.740472 65.144497 
L 593.033782 66.672504 
L 593.273763 67.798524 
L 593.460414 68.406073 
L 593.487079 68.447185 
L 593.540408 68.358108 
L 593.993705 65.806862 
L 594.047034 65.859394 
L 594.073699 65.852542 
L 594.606989 68.088594 
L 594.633654 68.015506 
L 594.686983 68.157115 
L 594.740312 68.031494 
L 594.84697 67.586111 
L 595.353596 65.553336 
L 595.38026 65.569324 
L 595.513583 66.284221 
L 595.833557 67.981246 
L 595.940216 68.125139 
L 595.96688 68.084026 
L 596.286854 67.229804 
L 596.313519 67.293757 
L 596.340183 67.382833 
L 596.420177 67.293757 
L 596.500171 67.2161 
L 596.84681 65.982731 
L 596.873474 66.083228 
L 597.113455 66.935166 
L 597.353436 68.344404 
L 597.3801 68.394653 
L 597.433429 68.303292 
L 597.726739 67.200112 
L 597.913391 66.770717 
L 597.993384 67.008255 
L 598.340023 68.376381 
L 598.366688 68.362676 
L 598.633333 67.714016 
L 598.659997 67.668335 
L 598.713327 67.743708 
L 598.846649 67.944701 
L 599.006636 68.321564 
L 599.273282 67.70488 
L 599.299946 67.789388 
L 599.353275 67.725436 
L 599.566591 68.145695 
L 599.619921 68.3307 
L 599.699914 68.310144 
L 600.073217 67.636359 
L 600.099882 67.672903 
L 600.179876 67.821365 
L 600.579844 68.392369 
L 600.739831 67.805376 
L 600.899818 67.497034 
L 600.953147 67.455922 
L 600.979811 67.515306 
L 601.273121 67.937849 
L 601.299786 67.910441 
L 601.539767 67.359993 
L 601.646425 67.280053 
L 601.673089 67.332585 
L 602.099722 68.161683 
L 602.846328 66.325334 
L 603.112974 65.107953 
L 603.219632 65.224437 
L 603.646264 68.184523 
L 603.699593 68.042914 
L 603.779587 67.73914 
L 603.966239 67.291473 
L 603.992903 67.300609 
L 604.099561 67.880749 
L 604.286213 68.531694 
L 604.312878 68.549966 
L 604.339542 68.444901 
L 604.606187 65.886802 
L 604.792839 64.961776 
L 604.846168 65.167337 
L 605.006155 66.656516 
L 605.219472 67.828217 
L 605.32613 67.403389 
L 605.646104 65.439135 
L 605.806091 65.80001 
L 606.126065 67.709448 
L 606.179395 67.590679 
L 606.419375 66.884918 
L 606.472704 66.992266 
L 606.73935 68.394653 
L 606.846008 68.243908 
L 606.952666 67.42623 
L 607.27264 63.881436 
L 607.325969 63.99792 
L 607.379298 64.333671 
L 607.805931 70.333783 
L 607.85926 70.18989 
L 607.992582 69.125538 
L 608.259228 67.113319 
L 608.39255 66.722752 
L 608.419215 66.775285 
L 608.659196 67.364561 
L 608.68586 67.344005 
L 608.765854 67.2732 
L 608.97917 67.152148 
L 609.085828 67.161284 
L 609.352473 67.531294 
L 609.725777 66.441818 
L 609.80577 66.492067 
L 610.09908 67.730004 
L 610.285732 68.088594 
L 610.792358 68.492865 
L 610.819023 68.428913 
L 611.298984 64.868131 
L 611.405642 65.295242 
L 611.858939 69.294555 
L 611.912268 69.210047 
L 612.178913 67.478762 
L 612.39223 66.313913 
L 612.525552 66.026127 
L 612.68554 66.836953 
L 613.192166 69.301407 
L 613.21883 69.319679 
L 613.245495 69.210047 
L 613.325488 68.931397 
L 613.698792 67.017391 
L 613.858779 67.396537 
L 614.258747 69.648578 
L 614.392069 69.65543 
L 615.165341 67.028811 
L 615.21867 67.076775 
L 615.271999 67.211532 
L 615.565309 68.303292 
L 615.778625 68.951953 
L 615.805289 68.844604 
L 615.965277 68.301008 
L 616.178593 67.369129 
L 616.285251 67.373697 
L 616.33858 67.339437 
L 616.365244 67.407957 
L 616.498567 67.590679 
L 616.525232 67.567839 
L 616.765212 67.647779 
L 617.058522 66.930598 
L 617.085187 66.88035 
L 617.111851 66.932882 
L 617.405161 67.734572 
L 617.645142 67.375981 
L 617.831794 66.969426 
L 618.071774 67.707164 
L 618.285091 68.29644 
L 618.391749 67.81908 
L 618.738388 66.220269 
L 618.765052 66.247677 
L 618.818381 66.375582 
L 619.191685 67.832785 
L 619.218349 67.816796 
L 619.325007 67.885317 
L 619.484994 68.056618 
L 619.804969 66.665652 
L 620.018285 65.836554 
L 620.151608 66.030695 
L 620.338259 67.841921 
L 620.604905 70.061985 
L 620.631569 70.048281 
L 620.711563 69.787903 
L 620.924879 68.045198 
L 621.111531 67.079059 
L 621.40484 67.010539 
L 621.538163 67.156716 
L 621.831473 67.597531 
L 622.28477 69.557217 
L 622.338099 69.520673 
L 622.738067 67.458206 
L 622.81806 67.636359 
L 622.871389 67.583827 
L 622.898054 67.700312 
L 623.538003 70.148778 
L 623.564667 70.125937 
L 624.124622 68.056618 
L 624.284609 67.81908 
L 624.444597 68.929113 
L 624.684577 70.498232 
L 624.737906 70.610149 
L 624.764571 70.500516 
L 625.164539 69.312827 
L 625.244533 69.41104 
L 625.377855 69.552649 
L 625.804488 68.62077 
L 626.177791 68.769231 
L 626.284449 68.698427 
L 626.311114 68.721267 
L 626.444436 68.814912 
L 626.52443 68.858308 
L 626.924398 70.436564 
L 627.031056 70.317795 
L 627.271037 69.383632 
L 627.537682 68.061186 
L 627.64434 67.946985 
L 627.671005 67.99495 
L 627.93765 68.666451 
L 627.990979 68.55225 
L 628.124302 68.259896 
L 628.177631 68.07489 
L 628.364282 67.668335 
L 628.604263 67.544998 
L 628.710921 67.526726 
L 629.004231 66.98313 
L 629.270876 67.755128 
L 629.404199 68.186807 
L 629.430864 68.170819 
L 629.510857 68.241624 
L 629.537522 68.205079 
L 629.670844 67.332585 
L 630.017483 64.566641 
L 630.097477 64.703682 
L 630.150806 64.856711 
L 630.577438 67.551851 
L 630.684096 67.357709 
L 630.950742 66.240825 
L 630.977406 66.270517 
L 631.030735 66.247677 
L 631.0574 66.348174 
L 631.217387 66.688492 
L 631.244051 66.663368 
L 631.59069 65.969027 
L 631.777342 66.233973 
L 631.830671 66.309345 
L 631.910665 66.492067 
L 631.937329 66.464659 
L 632.097316 65.576176 
L 632.310633 64.582629 
L 632.443955 65.160485 
L 632.817259 68.371813 
L 632.870588 68.211931 
L 633.217227 65.302094 
L 633.323885 65.697229 
L 633.617194 68.312428 
L 633.750517 67.917293 
L 634.123821 65.338638 
L 634.17715 65.354626 
L 634.310472 65.964459 
L 634.630447 67.513022 
L 635.083744 67.037947 
L 635.323724 67.652347 
L 635.377053 67.533578 
L 635.617034 67.254928 
L 635.723692 67.47191 
L 635.963673 68.243908 
L 636.363641 66.91461 
L 636.443635 67.063071 
L 636.656951 68.001802 
L 636.790273 68.275884 
L 637.00359 67.848773 
L 637.163577 67.433082 
L 637.216906 67.531294 
L 637.590209 69.461289 
L 637.696867 69.102698 
L 637.883519 67.766548 
L 638.1235 66.757013 
L 638.150164 66.807261 
L 638.496803 67.930997 
L 638.603461 68.116003 
L 639.030094 69.12097 
L 639.136752 69.027325 
L 639.216746 68.789788 
L 639.430062 67.656915 
L 639.53672 67.560987 
L 639.563384 67.615803 
L 639.670042 67.98353 
L 640.07001 69.591477 
L 640.096675 69.522957 
L 640.469978 68.136559 
L 640.496643 68.145695 
L 640.523307 68.191375 
L 640.576636 68.072606 
L 640.603301 68.136559 
L 640.736624 68.061186 
L 641.056598 67.572407 
L 641.269914 68.721267 
L 641.429901 69.203195 
L 641.456566 69.152946 
L 641.589889 68.709847 
L 641.963192 66.921462 
L 642.016521 67.019675 
L 642.309831 67.889885 
L 642.336495 67.873897 
L 642.416489 67.839637 
L 642.736463 66.489783 
L 642.94978 67.389685 
L 643.163096 68.547682 
L 643.243089 68.502002 
L 643.48307 67.17042 
L 643.77638 66.128908 
L 644.016361 66.270517 
L 644.229677 66.896338 
L 644.256341 66.884918 
L 644.549651 67.645495 
L 644.576316 67.602099 
L 644.682974 67.474194 
L 645.082942 66.076376 
L 645.136271 66.325334 
L 645.216264 66.711332 
L 645.429581 67.47191 
L 645.616232 67.26178 
L 645.669561 67.307461 
L 645.696226 67.234372 
L 645.72289 67.197828 
L 645.77622 67.312029 
L 645.909542 67.620371 
L 646.069529 68.049766 
L 646.096194 68.031494 
L 646.176187 67.837353 
L 646.362839 66.722752 
L 646.576155 65.715501 
L 646.60282 65.63556 
L 646.656149 65.790874 
L 646.816136 66.757013 
L 647.109446 68.833184 
L 647.136111 68.755527 
L 647.402756 67.485614 
L 647.642737 66.750161 
L 648.336014 68.812628 
L 648.389343 68.766947 
L 648.496001 68.522558 
L 648.709318 67.44907 
L 648.922634 66.450954 
L 648.949298 66.556019 
L 649.029292 66.638244 
L 649.589247 69.842719 
L 649.615912 69.733087 
L 649.72257 69.171218 
L 649.935886 68.024642 
L 649.962551 68.02921 
L 650.175867 68.2736 
L 650.202531 68.23934 
L 650.309189 68.122855 
L 650.442512 67.69346 
L 650.469177 67.766548 
L 650.522506 67.602099 
L 650.602499 67.636359 
L 651.029132 68.885716 
L 651.082461 68.732687 
L 651.535758 66.103784 
L 651.562422 66.163168 
L 651.802403 68.004086 
L 651.989055 69.191775 
L 652.015719 69.162082 
L 652.175706 68.200511 
L 652.415687 66.421262 
L 652.442352 66.302493 
L 652.522345 66.350458 
L 652.54901 66.364162 
L 652.788991 67.286905 
L 652.84232 67.421662 
L 652.922313 67.364561 
L 653.108965 66.757013 
L 653.322281 66.032979 
L 653.348946 66.048968 
L 653.455604 66.080944 
L 653.828907 66.642812 
L 653.988894 66.992266 
L 654.015559 66.97171 
L 654.068888 67.047083 
L 654.122217 66.980846 
L 654.282204 66.562871 
L 654.628843 65.149065 
L 654.682172 65.29981 
L 655.135469 67.149864 
L 655.268792 67.067639 
L 655.535437 66.14718 
L 655.562102 66.172304 
L 655.748753 66.279653 
L 656.148721 67.17042 
L 656.20205 67.049367 
L 656.335373 66.759297 
L 656.442031 66.610836 
L 656.575354 66.786705 
L 656.602018 66.743309 
L 656.708676 66.818681 
L 656.975322 67.526726 
L 657.108644 67.179556 
L 657.588606 65.630992 
L 657.61527 65.745193 
L 657.988574 67.835069 
L 658.068567 67.611235 
L 658.148561 67.316597 
L 658.361877 65.870814 
L 658.468535 65.263266 
L 658.521864 65.304378 
L 658.548529 65.274686 
L 658.575193 65.386603 
L 658.948497 67.015107 
L 659.02849 67.074491 
L 659.055155 67.010539 
L 659.268471 66.094648 
L 659.508452 64.973196 
L 659.561781 65.016592 
L 659.588445 64.897823 
L 659.801762 64.349659 
L 659.961749 64.847575 
L 660.468375 67.565555 
L 660.521704 67.49475 
L 660.655027 67.047083 
L 661.02833 65.756613 
L 661.294975 65.201597 
L 661.348304 65.286106 
L 661.428298 65.441419 
L 661.668279 66.942018 
L 661.85493 67.702596 
L 662.14824 66.581143 
L 662.308227 65.962175 
L 662.334892 65.982731 
L 662.468214 66.560587 
L 662.948176 69.401904 
L 663.054834 69.006769 
L 663.454802 65.870814 
L 663.481467 65.882234 
L 663.588125 66.1015 
L 663.801441 67.896737 
L 663.961428 68.588794 
L 664.094751 68.378665 
L 664.308067 67.764264 
L 664.334731 67.791672 
L 664.868022 69.650862 
L 665.401313 68.182239 
L 665.614629 67.531294 
L 666.041261 68.728119 
L 666.174584 69.118686 
L 666.201248 69.061586 
L 666.307907 68.757811 
L 666.601216 67.357709 
L 666.627881 67.439934 
L 666.654545 67.44907 
L 666.654545 67.44907 
" clip-path="url(#pb44ad02552)" style="fill: none; stroke: #000000; stroke-linecap: square"/>
   </g>
  </g>
 </g>
 <defs>
  <clipPath id="pb44ad02552">
   <rect x="0" y="-0" width="698.4" height="122.4"/>
  </clipPath>
 </defs>
</svg>
